/* XPM */
static char *result[] = {
/* columns rows colors chars-per-pixel */
"80 80 93 2 ",
"   c black",
".  c #0E0E0E",
"X  c #130E0B",
"o  c #15120E",
"O  c #131211",
"+  c #1A1612",
"@  c #1E1913",
"#  c gray11",
"$  c #241C15",
"%  c #281F17",
"&  c #271F18",
"*  c #272016",
"=  c #282016",
"-  c #2C221A",
";  c #32271B",
":  c #33281C",
">  c gray14",
",  c #2D2622",
"<  c #2E2924",
"1  c #2A2A2A",
"2  c #332C25",
"3  c #3A2D23",
"4  c #332E2A",
"5  c #3E3024",
"6  c #34302C",
"7  c #3B342E",
"8  c #343433",
"9  c #3A3632",
"0  c #3D3935",
"q  c #3D3D3C",
"w  c #413225",
"e  c #433629",
"r  c #423B34",
"t  c #413D39",
"y  c #45403C",
"u  c #4C443D",
"i  c #454545",
"p  c #4B4642",
"a  c #4D4D4D",
"s  c #544B44",
"d  c #594E42",
"f  c #524D4A",
"g  c #54514E",
"h  c #5A534C",
"j  c #545453",
"k  c #5A5652",
"l  c #5D5956",
"z  c #5B5B5B",
"x  c #605A53",
"c  c #635E59",
"v  c #6B6057",
"b  c #65615C",
"n  c #69635F",
"m  c #626262",
"M  c #6C6560",
"N  c #6D6A67",
"B  c #6C6C6C",
"V  c #716A63",
"C  c #76716D",
"Z  c #7A736E",
"A  c gray46",
"S  c #7D7670",
"D  c #7A7977",
"F  c #7B7B7B",
"G  c #857D77",
"H  c #837E79",
"J  c #86807B",
"K  c #858585",
"L  c #8A8682",
"P  c #8E8985",
"I  c #8A8A8A",
"U  c #928D87",
"Y  c #918D89",
"T  c #96918C",
"R  c #9C958F",
"E  c #949494",
"W  c #9C9B9B",
"Q  c #A49F9B",
"!  c #A3A3A3",
"~  c #ADAAA7",
"^  c #ABABAB",
"/  c #B1AFAD",
"(  c #B4B3B3",
")  c #BCB8B5",
"_  c #BCBCBC",
"`  c #C2C1C0",
"'  c #CBCBCB",
"]  c gray83",
"[  c #DCDCDB",
"{  c #E3E2E2",
"}  c #EFEFEF",
"|  c #F4F4F4",
" . c #FEFEFE",
/* pixels */
" . .| |  .| |  . .} |  .| |  . .} |  .| | |  .| }  .| | |  .| }  . .| |  .| |  . .} |  .| |  . .} |  .| | |  .} }  .| | |  .| }  . .| |  .| }  . .} |  .| |  . .",
" . .| |  .| |  . .| |  .| |  . .} |  .| | |  .} }  .| | |  .| }  . .| |  .| |  . .| |  .| |  . .| }  .| | |  .| |  .| | |  .} |  . .} |  .| |  . .| |  .| |  . .",
"} |  .| } |  .} }  .| | |  .| }  . .| |  .| |  . .| |  .| |  . .} }  .| | |  .} }  .| } |  .| }  .| | |  .| |  . .| |  .| |  . .} }  .| | |  .} |  .| | |  .| } ",
"} |  .| | |  .| }  .| | |  .| }  . .| |  .| |  . .| |  .| |  . .| }  .| } |  .| |  .| | |  .| }  . .| |  .| }  . .} |  .| }  . .| |  .| | |  .| }  .| | |  .} | ",
" . .| |  .| }  . .| |  .| |  . .} }  .| } |  .} }  .| | |  .} }  . .| | ] H F (  .| |  .| }  . .| |  .| | |  .} |  .| } ( H F (  . .| |  .| }  . .| |  .| |  . .",
" . .| |  .| }  . .| |  .| |  . .} |  .| } |  .} }  .| } |  .} }  . .} | ' j j E  .| |  .| }  . .} }  .| | |  .| }  .| } W j j !  .| } |  .| |  . .} |  .| | |  .",
"| |  .| | |  .| |  .| | |  .| |  . .| |  .| |  .| | |  .| |  . .} |  .| ` j j I | | | | |  .| }  .| | |  .| |  . .|  . .W j j ^ } |  .| | |  .| |  .| | |  .| | ",
"} }  .| | |  .| }  .| | |  .} }  . .| |  .| |  . .| |  .| |  . .} }  .| _ q i I |  .| | |  .| }  . .| |  .| |  . .} |  .B i i W | |  .| | |  .| }  .| | |  .| } ",
"| | | |  .| | | | | |  .| | | | |  .| | |  .| | | | |  . .| |  .| | |  ._ 8 1 I  .| |  .|  .| | | |  .| | | | | | | | | 1 8 8 E | | | |  .| | | | | | | | | | | ",
" . .|  . .| |  . .| |  .| |  . .} |  .| } |  .} |  .| } |  .} }  . .} | _ 8 8 I  .} |  .| }  . .| }  .| | |  .} }  .| } 1 8 8 `  . .| |  .| |  . .|  . .| |  . .",
"| | | | | | | | | | | | | | | | | | |  .| |  .| |  .| | | | | | | | | | ) 8 8 I | n 3 5 w w e e e Z Z I ^ ^ ^ ^ T 7 5 3 8 8 8 | | | | | | | | | | | | | |  .| | ",
"| |  .| | |  .| |  .| | |  .| |  . .} |  .| }  . .} |  . .}  .| | |  .| I > > K U - : - ; ; : : : K K K K I K m m m m m f = = E } |  . .| |  .| |  .| | |  .| | ",
"| | | | | |  .| | | | | | | | | |  .| | | | | | | |  .| { ) ` ~ U V d R c > > K U - ; ; ; ; ; - ; K K K K K K z m m z m a & & P | | | |  .| | | | | | | |  .| | ",
" . .|  . .| |  . .|  . . .|  . ./ P R J G G G G c s s s s e 5 5 3 5 w 3 2 2 2 2 : ; - ; ; ; - ; - K K K K K K m z m m m a % % L  . .| |  .| |  . .| |  .| |  . .",
"| | | | | | | | | | | | | | | | C $ % % u u ; - ; 3 3 3 x x G P ! ! Y I K Q W S s : : ; ; ; ; ; ; K K I K K K A A l 9 9 5 ; - ` | |  .| | | | | | | |  .| | | | ",
"| |  .| | |  .| |  .| | |  .| | J $ % % $ $ $ $ $ $ $ % - - - - w h h x c V E E c : : : ; ; ; ; : I K I I I K K K g * * - ; ;  .} |  .| | |  .| |  .| | |  .| | ",
"| | | |  .| |  .| | | | | | | | P $ $ $ $ $ $ $ $ $ $ + $ + @ @ $ $ $ % % % ; 3 3 ; : , ; ; ; , : I K I I K K K K h % % - ; ; | | | | | | | | | | | | | |  .| | ",
" . .| |  .| |  . .|  . .| |  . .L $ $ @ $ $ $ + $ $ $ $ @ $ $ @ + + $ $ $ + $ $ r c c c c h ; ; ; K I K I K D N N k u t u u u }  . .| |  .| |  . .| |  .| |  . .",
"| | | | | | | | | | | | | | | | P & $ @ $ $ $ $ $ % % $ @ @ @ $ $ + $ + $ $ $ + k E E E R E ; ; 2 K K K K K h ; : c E E E E E | | | | | | |  .| | | |  .| | | | ",
"| |  .| | |  .| |  .| | |  .| | Y & & $ $ $ $ $ $ % $ % @ $ $ $ $ $ $ $ $ + @ $ k E E E W E ; ; h K K K K K k ; : c E E E E W  .} |  .| | |  .| |  .| | |  .| } ",
"| |  .| | |  .| | | | | | | | | U % % $ $ $ $ $ $ $ % $ $ @ @ % $ + $ $ $ @ $ $ x E E E E E ; ; k K K K K K k ; < I E E W E W | | | | | | | | | | | | | |  .| | ",
" .| | |  .| |  . .} |  .| }  . .P $ $ $ $ $ $ $ $ $ $ % % $ @ $ $ + $ $ @ @ @ $ X     ` ` _ ; - f D A f < 5 2 - - ^ ) ) O O > |  . .| |  .| |  . .| |  .| |  . .",
" . .| |  .| }  . .| |  . .| |  .[ $ $ $ $ % $ $ $ $ $ $ % $ @ % $ @ $ $ @ 2 t % X     ` _ _ - ; f D A f ; : - ; : ( _ `     . }  .| | |  .| }  . .} |  .| |  . .",
"} |  .| | |  .| |  .| } |  .| }  .$ $ $ $ $ $ $ $ $ % $ % $ $ % $ $ $ $ $ q m a >     _ _ C ; - f A D f - - ; - - / _ _     z  .} |  .| | |  .} |  .| | |  .| } ",
"| |  .| | |  .} |  .| | |  .| }  .$ $ % $ $ % $ $ $ $ $ % $ % $ $ @ $ $ $ r b a r - - , - p - ; e p p 3 ; , ; - - n M M o o P  .| }  .| | |  .| |  .| | |  .} | ",
" .| | |  .| |  . .} |  .| }  . .} $ $ % $ $ $ $ + $ $ + $ % $ % $ @ $ % $ r m j 9 % ; - - ; - ; - ; , - - - - - - - - ; ; - U }  . .} |  .| }  . .| |  .| }  . .",
" . .| |  .| }  . .| |  .| |  . .} $ % $ $ $ $ $ + $ $ + % $ $ % $ @ $ % % t m B u ; - ; ; ; ; - , - ; - ; - ; ; : - ; - ; - P }  . .| |  .| |  . .} |  .| |  . .",
"} |  .| | |  .} }  .| | |  .| }  .$ % % $ $ + $ $ + $ $ % & % $ $ @ $ % % t m B t - ; % % t M M M M n n n n s r r - - - % ; Q  .} |  .| | |  .| |  .| | |  .} } ",
"| }  .| | |  .| |  .| | |  .| }  .$ $ % $ $ @ $ $ + $ $ $ $ % % $ @ % $ $ r z B t : ; & % n ! ! ! ! ! ! ! ! ! ! ! % % % ; - }  .} |  .| | |  .| }  .| | |  .| | ",
" . .| |  .| }  . .} |  .| | |  .} 2 $ & $ $ a 0 , $ $ $ $ $ $ $ $ @ % $ $ 8 a m r ; - & & m ! ! ! ! ! ! ! ! ! ! ! % % % - ; [ }  . .} |  .| }  . .} |  .| |  . .",
" . .} |  .| |  . .| |  .| |  . .} 4 % $ @ $ p j m z i $ $ $ $ & $ % % $ $ 8 a m t - - c c z j a N A A I ! ! ! ! ! % % % % ; [ }  . .| |  .| }  . .| |  .| | |  .",
"| }  .| | |  .| }  .| | |  .| }  .3 % & $ + p z m c a % $ $ $ $ $ % $ $ @ a j m t - : ! ! j     1 i i i i i     i ! ! c % $ }  .} |  .| | |  .| }  .| | |  .| | ",
"} |  .| | |  .| |  .| | |  .| }  .4 % $ $ + i z m m a % % $ $ $ $ % $ $ @ m b a 4 , v ! ! g     4 i i i i i     j ! ! c % $ |  .| |  .| | |  .| }  .| | |  .| } ",
" . .| |  .| }  . .| |  .| | |  .} 3 $ $ + $ i j N B a % $ $ $ + $ % $ 2 4 m m a r - b W W z # > 8 q q a i i     j ! ! m % % | }  . .} |  .| |  . .} |  .| }  . .",
" . .| |  .| |  . .} |  .| |  . .} 2 $ $ $ $ $ t m B a < % $ $ $ $ $ $ t m m m j e , l Y E B i i q 8 8 8 8 q i a A ! ! f ; % } }  . .| |  .| |  . .| |  . .|  . .",
"| |  .| | | | | | | | | |  .| | | Y $ $ $ $ % 9 j m j r $ $ $ + @ $ @ r m m m B t , l E E B i i q 8 q 8 8 q i i A ! ! f ; ;  .| | | |  .| | | | |  .| | | | | | ",
"| |  .| | |  .| |  .| | |  .| |  . .L % $ % $ 4 j m m j 9 $ $ $ @ $ @ 7 z m m B r % r l l p 8 e 8 1 4 8 q a j a A E ~ S - t  . .| |  .| | |  .| |  . .| |  .| | ",
"| | | |  .| | | | | | | | | | | | | Y % % $ % $ , j z j 9 % $ $ $ @ @ 8 a B B m r $ $ $ % & @ - & $ % % j N F B B B ^ | | | | | | | | | | | | | | | | | | | | | ",
" . .| |  .| |  . .| |  . .|  . .} | Y $ & $ % $ $ a a a 9 $ $ $ $ @ $ 6 a B B a 4 % $ $ - $ $ - & $ % % j B F m B m ! } |  .| }  . .| |  .| |  . .| |  .| |  . .",
"|  .| | | | | | |  .| | | | | | | | P $ $ $ $ & & 0 a a 9 % % $ $ @ $ i m B B a 4 $ $ $ & & % - & $ % & m m z j A m W  .| |  .| | | | |  .| | | | | | |  .| | | ",
"| |  .| | |  .| |  .| | |  .| |  . .L $ % $ % ; - - % t 0 % $ & $ $ $ y B m m m r $ $ $ % & % - & $ = = B z l r 2 - T  .| |  . .| |  .| | |  .| |  .| | |  .| | ",
"| |  .| | | | | | | | | | | | | | | K $ $ $ % - = & - r z ( h $ $ @ % 4 B m m B t & $ $ $ & - % & & - p p 0 = % $ % W | | | | | | | | |  .| | | |  .| | | | | | ",
" . .| |  . .|  . .| |  . .|  . .} } Y $ $ $ $ - % & % t l  .L & $ $ % $ , j m B t % & & % - - % & & & $ @ = - % & j ! } |  .| |  . .| |  .| |  . .| |  .| |  . .",
"| | | | | | | | |  .| | | | | |  .| P $ $ $ @ - & $ - t z | P $ $ $ % $ $ a a m t $ - - - % - $ $ & $ $ $ - - - - j ^ | | | | | | | |  .| | | | | | |  .| | | | ",
"| |  .| | |  .| |  .| | |  .| |  . .J $ $ @ @ - & $ % t j } U & e 8 % $ $ y a m r $ % - & % - $ % % $ $ @ - - = - j '  . .|  . .| |  .| | |  .| |  .| | |  .| | ",
"| | |  .| | | | | | | | | | | | | | U $ $ $ @ - & $ - r z | P & 9 a % & $ & , g r % - % $ & % $ $ $ $ $ $ - = % = z | | | | | | | | | | | | | | | | | | | | | | ",
" . .| |  . .|  . .| |  .| |  . .| | U % % @ $ - - - % q l  .L % $ 4 $ $ & $ $ $ @ - % & $ 2 g @ $ $ $ $ $ - $ & - z | | |  .| |  . .| |  .| |  . .| |  . .|  . .",
" .| | | | | | |  .| |  .| | | | | | | $ = @ % % % - - p B | L $ & - & % & $ $ $ % % - - - t j @ $ $ $ $ $ - $ & % z  .| | | | | |  .| |  .| |  .| | |  .| | | | ",
"| }  .| | |  .} }  .| | |  .| }  . .} & 2 a , = & $ = - B } Y & $ % $ $ = $ $ @ % - % - % r j $ $ $ $ $ $ - $ & = l |  .| |  . .} |  .| | |  .| }  .| | |  .| } ",
"} |  .| | |  .| |  .| | |  .| }  . .} $ 2 a a $ $ $ - - : } Y & $ $ $ $ = $ $ @ % - ; % % t j % $ $ @ @ $ = $ & = j |  .| |  . .} |  .| | |  .} }  .| | |  .| } ",
" . .| |  .| |  . .| |  .| } |  .} |  .$ * = j $ $ = - ; -  .L & $ $ @ $ $ % $ @ % - $ % % t j $ % $ @ $ & % = = t m | | |  .| }  . .| |  .| |  . .| |  .| |  . .",
" . .| |  .| }  . .} |  .| |  . .} }  .% * & m $ = - - - - ) L & $ $ $ $ % $ $ $ = - % % - t j % % $ $ $ % - - - p F  .} |  .} }  . .| |  .| |  . .| |  .| }  . .",
"| }  .| | |  .} |  .| | |  .| |  . .} $ & $ h $ = = = - - U Y $ $ + $ $ % $ $ @ = - & & ; t j $ = 7 9 < % % = = p F |  .| }  . .} |  .| | |  .} }  .| | |  .| } ",
"} |  .| | |  .| }  .| | |  .} }  . .} = $ & * $ % - - - - L P @ + $ $ $ % @ @ @ % - $ & % t j $ = p a a 9 & $ - 9 s |  . .|  . .} |  .| | |  .} |  .| | |  .} | ",
" .| | |  .| |  . .| |  .| }  . .} |  .n & $ % $ & & & = - T J + $ $ $ = % @ $ + - - $ $ % t j % = = t a 8 $ & - - s | | |  .| }  . .| |  .| |  . .| |  .| |  . .",
" . .| |  .| |  . .} |  .| }  . .} }  .n $ @ $ $ $ & $ = - Y I O X + $ = = @ @ $ - = = - - t f $ = % & m 0 & % - - Y | | |  .| }  . .| |  .| }  . .} |  .| |  . .",
"} |  .| | |  .} }  .| | |  .| }  . .} c $ @ $ $ $ $ % % % L | ' p . $ % % $ $ $ - - % - - x p $ $ % = m r % - - - U |  .| |  . .} |  .| | |  .| |  .| | |  .| } ",
"} |  .| | |  .} |  .| | |  .| }  . .} l $ $ $ $ $ $ % % % L  . .} ~ $ & % t $ $ % - - % - B p $ $ $ & 7 t % = - = P |  .| |  . .} |  .| | |  .} }  .| | |  .} | ",
" . .| |  .| |  . .| |  .| } |  .} }  .c @ $ $ $ $ $ $ $ $ Y } }  . .$ % = a a 2 % = $ % - B 7 % $ $ $ = & $ - = - T | } |  .| }  . .| |  .| |  . .| |  .| |  . .",
" . .| |  .| }  . .} |  .| |  . .} }  .z O @ @ $ $ & $ $ O K } }  . .$ % = a a a $ $ $ = ; < % % $ $ $ = $ $ $ - - T | | |  .| }  . .| |  .| |  . .} |  .| | |  .",
"} |  .| | |  .} |  .| | |  .| }  . .} ( . . @ $ $ + O O . (  . .} } $ % = , i a $ $ % - - - % $ $ $ $ $ $ $ $ - - { |  .| |  . .} |  .| | |  .} }  .| | |  .| | ",
"| }  .| | |  .| }  .| | |  .| }  . .} | [ i . O . O i K | }  . .} | $ $ % & t m $ $ - - - - % $ $ $ $ $ $ $ $ = - { |  .| |  . .| |  .| | |  .| }  .| | |  .| } ",
" .| | |  .| |  .| | |  .| | |  .| |  .| | | B . i Y | } |  .| }  . .% % $ % t m $ $ - - - - $ $ $ $ $ $ $ @ $ $ & } | | | | | |  .| | | | | | |  .| | | | | |  .",
" . .| |  .| }  . .| |  .| }  . .} }  .| } |  .} }  .| } |  .} }  . .$ $ % $ % z $ $ % % - - $ @ @ + $ $ $ $ $ $ $ } | | |  .| }  . .| |  .| |  . .| |  .| |  . .",
"| | | |  .| | | | | | | |  .| | | | | | | | | | | | | |  .| | | | | - & $ $ % % $ & = - = ; @ O + $ $ @ $ $ $ @ O {  .| |  .| | | | | | | |  .| | | | |  .| | | ",
"| |  .| | |  .| |  .| | |  .| |  . .|  . .| |  . .| |  .| |  . .} | % & $ $ $ % $ % & % - - f O . X @ @ $ $ O o + | |  .| }  . .| |  . .| |  .| |  .| | |  .| | ",
"| | | | | | | | | | | | | | | | | | | | | | | | | | | | | | | | | | $ $ $ @ $ $ $ $ $ % - - { | i . . O O . O / | | | | | | | | | | | | | | | | | | | | | |  .| ",
" . .| |  .| |  . .|  . .| |  . .| |  .| | |  .| |  .| | |  .| |  . .$ & % $ $ $ * $ $ % = = }  .} ' a . O a } } |  .| |  . .| |  . .| |  .| |  . .| |  .| |  . .",
"| | |  .| | |  .| | | | | | | | | | | | | | | | | | | | | | | | | | $ @ $ @ $ $ $ $ $ * = * { | | | | ! ] | |  .| | | | | | | | | | |  .| | |  .| | | | | | | | ",
"| |  .| | |  .| |  .| | |  .| |  . .| |  .| }  . .| |  .| |  . .| | + $ $ $ $ $ $ $ $ $ $ $ [ |  . .|  . .| }  . .|  . .| |  . .| |  .| | |  .| |  . .| |  .| | ",
"| | | | | | | | | | | |  .| | | | | | | | | | | | | | | | | | | | | . o @ $ $ $ $ $ $ $ $ + { | | | | | | | | | | | | | |  .| | | | | | | | | | | | | |  .| | | ",
" . .| |  .| |  . .| |  .| |  . .| |  .| | |  .| |  .| } |  .} |  . .i . o o @ $ $ $ $ @ o o {  .| |  .| | |  .| |  .| | |  .| |  . .| |  .| |  . .| |  .| |  . .",
"| | | | | | | | | | | | |  .| | | | |  .| | | | | | | | | | | | | | | B O . + @ $ $ O O > A | | | | | | | |  .| | | | | |  .| | | | | | | | | | | | | | |  .| | ",
"| |  .| |  . .| |  .| | |  .| |  . .| |  .| |  . .} |  .| |  . .| |  .| W # . + @ O O z |  .| |  . .|  . .| |  . .| |  .| |  . .| |  .| |  . .| |  .| | |  .| | ",
"| | | | | | | | | | |  .| | | | | | | | | | | | | | | | | | | | | |  .| | | # . O . _ | | | | | | | | | | | | | | | |  .| | | | | | | | | | | | | | |  .| | | | ",
" . .|  . .| |  . .| |  .| |  . .| |  .| | | | } }  .| } |  .} |  . .| |  .| | j j } |  .| |  . .| |  .| | |  .} |  .| | |  .| }  . .|  . .| |  . .| |  .| |  . .",
" . .| |  .| | |  .| |  .| | |  .| |  .| | |  .| |  .| | |  .| | |  .| |  .| |  . .} |  .| |  . .| |  .| | |  .| |  .| | |  .| }  . .| |  .| | |  .| |  .| | |  .",
"} |  .| | |  .} |  .| | |  .} |  .| | |  .| |  . .| |  .| | |  .} |  .| | |  .} }  .| | |  .| }  .| | |  .| }  . .| |  .| |  . .} |  .| | |  .} |  .| | |  .} | ",
"} |  .| | |  .| }  .| | |  .| }  . .| |  .| }  . .} |  .| }  . .| }  .| } |  .} }  .| | |  .| }  .| | |  .| |  . .} |  .| |  . .} |  .| | |  .| }  .| | |  .| } ",
" . .} |  .| |  . .} |  .| |  . .| |  .| | |  .} |  .| | |  .| |  . .| |  .| |  . .| |  .| | |  .| |  .| | |  .| }  .| | |  .| }  . .} |  .| |  . .} |  .| |  . ."
};
