/* XPM */
static char *result[] = {
/* columns rows colors chars-per-pixel */
"80 80 32 1 ",
"  c #C45FFF",
". c #C663FF",
"X c #C865FF",
"o c #C769FF",
"O c #C96BFF",
"+ c #CB72FF",
"@ c #CE7AFF",
"# c #D07EFF",
"$ c #CE81FF",
"% c #D183FF",
"& c #D58BFF",
"* c #D791FF",
"= c #D996FF",
"- c #DA9BFF",
"; c #DDA3FF",
": c #DFAAFF",
"> c #E1ADFF",
", c #E3B3FF",
"< c #E6BBFF",
"1 c #E8BFFF",
"2 c #E7C1FF",
"3 c #E9C4FF",
"4 c #ECCBFF",
"5 c #EED4FF",
"6 c #F0D7FF",
"7 c #F2DCFF",
"8 c #F5E4FF",
"9 c #F7EAFF",
"0 c #F9EDFF",
"q c #FBF3FF",
"w c #FEFEFF",
"e c None",
/* pixels */
"eeeeeeeeeeeeeeeeeeeeeeeeeeeeeeeeeeeeeeeeeeeeeeeeeeeeeeeeeeeeeeeeeeeeeeeeeeeeeeee",
"eeeeeeeeeeeeeeeeeeeeeeeeeeeeeeeeeeeeeeeeeeeeeeeeeeeeeeeeeeeeeeeeeeeeeeeeeeeeeeee",
"eeeeeeeeeeeeeeeeeeeeeeeeeeeeeeeeeeeeeeeeeeeeeeeeeeeeeeeeeeeeeeeeeeeeeeeeeeeeeeee",
"eeeeeeeeeeeeeeeeeeeeeeeeeeeeeeeeeeeeeeeeeeeeeeeeeeeeeeeeeeeeeeeeeeeeeeeeeeeeeeee",
"eeeeeeeeeeeeeeeeeeeeeeeeeeeeeeeeeeeeeeeeeeeeeeeeeeeeeeeeeeeeeeeeeeeeeeeeeeeeeeee",
"eeeeeeeeeeeeeeeeeeeeeeeeeeeeeeeeeeeeeeeeeeeeeeeeeeeeeeeeeeeeeeeeeeeeeeeeeeeeeeee",
"eeeeeeeeeeeeeeeeeeeeeeeeeeeeeeeeee.. ..........eeeeeeeeeeeeeeeeeeeeeeeeeeeeeeeee",
"eeeeeeeeeeeeeeeeeeeeeeeeeeeeee.. .....XX.X........Xeeeeeeeeeeeeeeeeeeeeeeeeeeeee",
"eeeeeeeeeeeeeeeeeeeeeeeeeee......O&;<5788753<-@oXX...eeeeeeeeeeeeeeeeeeeeeeeeeee",
"eeeeeeeeeeeeeeeeeeeeeeeee...X.$<9qwwwwq0qqqwwww05;O.X...eeeeeeeeeeeeeeeeeeeeeeee",
"eeeeeeeeeeeeeeeeeeeeeeeX...X,9www4>&++ooooO+@=<8wwq7&X...eeeeeeeeeeeeeeeeeeeeeee",
"eeeeeeeeeeeeeeeeeeeeee....3www,@X..............XX=7wwq-XX..eeeeeeeeeeeeeeeeeeeee",
"eeeeeeeeeeeeeeeeeeee...o:ww0*XX . .................o<wwq$XX.eeeeeeeeeeeeeeeeeeee",
"eeeeeeeeeeeeeeeeeee..X%0wq=.X....eeeeeeeeeeeeeee.X.XXo2qw2oX..eeeeeeeeeeeeeeeeee",
"eeeeeeeeeeeeeeeeee.XX:wq<X....eeeeeeeeeeeeeeeeeeee.....@7w0$X.Xeeeeeeeeeeeeeeeee",
"eeeeeeeeeeeeeeeee.XO4w9$X...eeeeeeeeeeeeeeeeeeeeeeeee..XX>qq;..Xeeeeeeeeeeeeeeee",
"eeeeeeeeeeeeeeee.X+7w4oX..eeeeeeeeeeeeeeeeeeeeeeeeeeee..XX&qw,...eeeeeeeeeeeeeee",
"eeeeeeeeeeeeeee XO8w<o.X.eeeeeeeeeeeeeeeeeeeeeeeeeeeeeee...+8w,...eeeeeeeeeeeeee",
"eeeeeeeeeeeeee .o8w>.X.eeeeeeeeeeeeeeeeeeeeeeeeeeeeeeeeee...O9w:..Xeeeeeeeeeeeee",
"eeeeeeeeeeeee..X5w<..XeeeeeeeeeeeeeeeeeeeeeeeeeeeeeeeeeeeeX.XO0w*..eeeeeeeeeeeee",
"eeeeeeeeeeee...<w4X..eeeeeeeeeeeeeeeeeeeeeeeeeeeeeeeeeeeeeeX..@qw@X.eeeeeeeeeeee",
"eeeeeeeeeeee .&w8X..eeeeeeeeeeeeeeeeeeeeeeeeeeeeeeeeeeeeeeee...&w9o..eeeeeeeeeee",
"eeeeeeeeeee..o0q@..eeeeeeeeeeeeeeeeeeeeeeeeeeeeeeeeeeeeeeeeee.X.<w,X.eeeeeeeeeee",
"eeeeeeeeeee..4w;...eeeeeeeeeeeeeeeeeeeeeeeeeeeeeeeeeeeeeeeeeee..X9w@.Xeeeeeeeeee",
"eeeeeeeeee..%w8...eeeeeeeeeeeeeeeeeeeeeeeeeeeeeeeeeeeeeeeeeeeee..%w6X..eeeeeeeee",
"eeeeeeeeee..7w# .eeeeeeeeeeeeeeeeeeeeeeeeeeeeeeeeeeeeeeeeeeeeee...5w&.Xeeeeeeeee",
"eeeeeeeee..#w6...eeeeeeeeeeeeeeeeeeeeeeeeeeeeeeeeeeeeeeeeeeeeeee..Ow9 .eeeeeeeee",
"eeeeeeeee..4w#..eeeeeeeeeeeeeeeeeeeeeeeeeeeeeeeeeeeeeeeeeeeeeeee...5w#. eeeeeeee",
"eeeeeeee..Ow0. .eeeeeeeeeeeeeeeeeeeeeeeeeeeeeeeeeeeeeeeeeeeeeeeee..#w7.Xeeeeeeee",
"eeeeeeeeXX>w=..eeeeeeeeeeeeeeeeeeeeeeeeeeeeeeeeeeeeeeeeeeeeeeeeee.. 0w...eeeeeee",
"eeeeeeee..0wo..eeeeeeeeeeeeeeeeeeeeeeeeeeeeeeeeeeeeeeeeeeeeeeeeeee..:w;X.eeeeeee",
"eeeeeee..Oq8X..eeeeeeeeeeeeeeeeeeeeeeeeeeeeeeeeeeeeeeeeeeeeeeeeeee..+w4..eeeeeee",
"eeeeeeeX.=w>..eeeeeeeeeeeeeeeeeeeeeeeeeeeeeeeeeeeeeeeeeeeeeeeeeeeeX.Xww..eeeeeee",
"eeeeeeeXX4w+..eeeeeeeeeeeeeeeeeeeeeeeeeeeeeeeeeeeeeeeeeeeeeeeeeeeee..4wO .eeeeee",
"eeeeeeeX.9wX. eeeeeeeeeeeeeeeeeeeeeeeeeeeeeeeeeeeeeeeeeeeeeeeeeeeee.X-w;..eeeeee",
"eeeeeee.Xq0X..eeeeeeeeeeeeeeeeeeeeeeeeeeeeeeeeeeeeeeeeeeeeeeeeeeeee .@w,X.eeeeee",
"eeeeee..Oq5X.eeeeeeeeeeeeeeeeeeeeeeeeeeeeeeeeeeeeeeeeeeeeeeeeeeeeee..Ow5..eeeeee",
"eeeeee.X@w2X.eeeeeeeeeeeeeeeeeeeeeeeeeeeeeeeeeeeeeeeeeeeeeeeeeeeeee..ow8..eeeeee",
"eeeeee.X&w,..eeeeeeeeeeeeeeeeeeeeeeeeeeeeeeeeeeeeeeeeeeeeeeeeeeeeee.XXwq..eeeeee",
"eeeeee..&w:.Xeeeeeeeeeeeeeeeeeeeeeeeeeeeeeeeeeeeeeeeeeeeeeeeeeeeeee...wq..eeeeee",
"eeeeee..&w:..eeeeeeeeeeeeeeeeeeeeeeeeeeeeeeeeeeeeeeeeeeeeeeeeeeeeeeX.Xwq..eeeeee",
"eeeeee..&w,.Xeeeeeeeeeeeeeeeeeeeeeeeeeeeeeeeeeeeeeeeeeeeeeeeeeeeeee...wq..eeeeee",
"eeeeee.X$w<..eeeeeeeeeeeeeeeeeeeeeeeeeeeeeeeeeeeeeeeeeeeeeeeeeeeeeeX.Xwq..eeeeee",
"eeeeee..+q4X.eeeeeeeeeeeeeeeeeeeeeeeeeeeeeeeeeeeeeeeeeeeeeeeeeeeeee..ow7..eeeeee",
"eeeeee..Xq7oXeeeeeeeeeeeeeeeeeeeeeeeeeeeeeeeeeeeeeeeeeeeeeeeeeeeeee..+w4..eeeeee",
"eeeeeee..qqo..eeeeeeeeeeeeeeeeeeeeeeeeeeeeeeeeeeeeeeeeeeeeeeeeeeeee..&w>X.eeeeee",
"eeeeeee.X7wo..eeeeeeeeeeeeeeeeeeeeeeeeeeeeeeeeeeeeeeeeeeeeeeeeeeeee.X<w@..eeeeee",
"eeeeeee.X>w&. eeeeeeeeeeeeeeeeeeeeeeeeeeeeeeeeeeeeeeeeeeeeeeeeeeee.X.7wO..eeeeee",
"eeeeeee.X@w2X.eeeeeeeeeeeeeeeeeeeeeeeeeeeeeeeeeeeeeeeeeeeeeeeeeeeeX.owq..eeeeeee",
"eeeeeeeX.XqwXXXeeeeeeeeeeeeeeeeeeeeeeeeeeeeeeeeeeeeeeeeeeeeeeeeeeeXX%w<..eeeeeee",
"eeeeeeee..5w@..eeeeeeeeeeeeeeeeeeeeeeeeeeeeeeeeeeeeeeeeeeeeeeeeee...4w$..eeeeeee",
"eeeeeeee..$w3X.eeeeeeeeeeeeeeeeeeeeeeeeeeeeeeeeeeeeeeeeeeeeeeeeee ..wq..eeeeeeee",
"eeeeeeee...qwo..eeeeeeeeeeeeeeeeeeeeeeeeeeeeeeeeeeeeeeeeeeeeeeeee..;w;X.eeeeeeee",
"eeeeeeeee .>w;X.eeeeeeeeeeeeeeeeeeeeeeeeeeeeeeeeeeeeeeeeeeeeeeee...qwX..eeeeeeee",
"eeeeeeeeeX. wwX..eeeeeeeeeeeeeeeeeeeeeeeeeeeeeeeeeeeeeeeeeeeeeee..=w3..eeeeeeeee",
"eeeeeeeeee..<w>X..eeeeeeeeeeeeeeeeeeeeeeeeeeeeeeeeeeeeeeeeeeeee..XqwX..eeeeeeeee",
"eeeeeeeeee..XqwO..eeeeeeeeeeeeeeeeeeeeeeeeeeeeeeeeeeeeeeeeeeeeX.X,w>XXeeeeeeeeee",
"eeeeeeeeeee.X*w5...eeeeeeeeeeeeeeeeeeeeeeeeeeeeeeeeeeeeeeeeeee..@qqo..eeeeeeeeee",
"eeeeeeeeeeeX.X4w;...eeeeeeeeeeeeeeeeeeeeeeeeeeeeeeeeeeeeeeeee..X8w%.Xeeeeeeeeeee",
"eeeeeeeeeeee.XO0w$XXXeeeeeeeeeeeeeeeeeeeeeeeeeeeeeeeeeeeeeee..X3w,...eeeeeeeeeee",
"eeeeeeeeeeeee..@wq+XXXeeeeeeeeeeeeeeeeeeeeeeeeeeeeeeeeeeeee..X:w7o..eeeeeeeeeeee",
"eeeeeeeeeeeee..X*w0O...eeeeeeeeeeeeeeeeeeeeeeeeeeeeeeeeeeeX.X-w0o..eeeeeeeeeeeee",
"eeeeeeeeeeeeee...:w8+...eeeeeeeeeeeeeeeeeeeeeeeeeeeeeeeee..X-wq+X.eeeeeeeeeeeeee",
"eeeeeeeeeeeeeee.XX>wq@...eeeeeeeeeeeeeeeeeeeeeeeeeeeeee.XXo:wq@X.eeeeeeeeeeeeeee",
"eeeeeeeeeeeeeeee ..;wq=X.X.eeeeeeeeeeeeeeeeeeeeeeeeeee...O3w9@..eeeeeeeeeeeeeeee",
"eeeeeeeeeeeeeeeee..X*qw3O....eeeeeeeeeeeeeeeeeeeeeee. ..&0w4O..eeeeeeeeeeeeeeeee",
"eeeeeeeeeeeeeeeeee...+5wq-XX...eeeeeeeeeeeeeeeeee...XXO3wq:XX.eeeeeeeeeeeeeeeeee",
"eeeeeeeeeeeeeeeeeee..XX;qw8$.X.....eeeeeeeeeee.....XX>qw8@X..eeeeeeeeeeeeeeeeeee",
"eeeeeeeeeeeeeeeeeeeee..XO3ww0-X........XX.... .X..+<wwq-X..Xeeeeeeeeeeeeeeeeeeee",
"eeeeeeeeeeeeeeeeeeeeeeX...O3qww7*+XX.X.X.XX.X.o@,qwwq=XX..eeeeeeeeeeeeeeeeeeeeee",
"eeeeeeeeeeeeeeeeeeeeeeee....O;8qwww5<:==&*-<47wwwq3%....eeeeeeeeeeeeeeeeeeeeeeee",
"eeeeeeeeeeeeeeeeeeeeeeeeee.... +=28qwwwwwwwwq07>*X....Xeeeeeeeeeeeeeeeeeeeeeeeee",
"eeeeeeeeeeeeeeeeeeeeeeeeeeee.....X.o+&*&=**%OX......eeeeeeeeeeeeeeeeeeeeeeeeeeee",
"eeeeeeeeeeeeeeeeeeeeeeeeeeeeeee.... ..XXXXX......eeeeeeeeeeeeeeeeeeeeeeeeeeeeeee",
"eeeeeeeeeeeeeeeeeeeeeeeeeeeeeeeeeeeeeX.....Xeeeeeeeeeeeeeeeeeeeeeeeeeeeeeeeeeeee",
"eeeeeeeeeeeeeeeeeeeeeeeeeeeeeeeeeeeeeeeeeeeeeeeeeeeeeeeeeeeeeeeeeeeeeeeeeeeeeeee",
"eeeeeeeeeeeeeeeeeeeeeeeeeeeeeeeeeeeeeeeeeeeeeeeeeeeeeeeeeeeeeeeeeeeeeeeeeeeeeeee",
"eeeeeeeeeeeeeeeeeeeeeeeeeeeeeeeeeeeeeeeeeeeeeeeeeeeeeeeeeeeeeeeeeeeeeeeeeeeeeeee",
"eeeeeeeeeeeeeeeeeeeeeeeeeeeeeeeeeeeeeeeeeeeeeeeeeeeeeeeeeeeeeeeeeeeeeeeeeeeeeeee",
"eeeeeeeeeeeeeeeeeeeeeeeeeeeeeeeeeeeeeeeeeeeeeeeeeeeeeeeeeeeeeeeeeeeeeeeeeeeeeeee"
};
