/* XPM */
static char *result[] = {
/* columns rows colors chars-per-pixel */
"80 80 225 2 ",
"   c #191A2A",
".  c #291D59",
"X  c #2C215A",
"o  c #31265E",
"O  c #3D3367",
"+  c #3A2F62",
"@  c #151A63",
"#  c #423969",
"$  c #55555B",
"%  c #4A494F",
"&  c #4B4171",
"*  c #564C79",
"=  c #635A7A",
"-  c #5C6166",
";  c #787875",
":  c #66666F",
">  c #FF5319",
",  c #FF652D",
"<  c #FF6C33",
"1  c #FC5B28",
"2  c #817F7A",
"3  c #F87245",
"4  c #D0607B",
"5  c #CE466A",
"6  c #82827C",
"7  c #FF834A",
"8  c #F78553",
"9  c #FF955C",
"0  c #F68C64",
"q  c #FD9865",
"w  c #F08F7B",
"e  c #EE9C74",
"r  c #F99F77",
"t  c #FFA46B",
"y  c #FFB078",
"u  c #102880",
"i  c #112D97",
"p  c #0E389A",
"a  c #1231A6",
"s  c #0E3BB6",
"d  c #1942B5",
"f  c #625A82",
"g  c #6C6485",
"h  c #726A8D",
"j  c #746C85",
"k  c #79738F",
"l  c #5C57AC",
"z  c #4742A9",
"x  c #645EAD",
"c  c #6969B0",
"v  c #4C6CA5",
"b  c #0A3DC7",
"n  c #085CD3",
"m  c #0B50CF",
"M  c #1772D2",
"N  c #0469E5",
"B  c #007EF6",
"V  c #0178EF",
"C  c #847C99",
"Z  c #837B8D",
"A  c #807AB2",
"S  c #CB7389",
"D  c #D4788C",
"F  c #CE6D86",
"G  c #2097DB",
"H  c #1386E3",
"J  c #0A80F6",
"K  c #308CF7",
"L  c #3390ED",
"P  c #1BA2ED",
"I  c #24AFE8",
"U  c #2BB1E8",
"Y  c #35B5EA",
"T  c #48BAE4",
"R  c #46B9EC",
"E  c #40B7EB",
"W  c #63A5E8",
"Q  c #78C6DB",
"!  c #6BC8E4",
"~  c #68C6E7",
"^  c #77CCE3",
"/  c #75CAF2",
"(  c #6CCAF1",
")  c #55C0E5",
"_  c #8B839D",
"`  c #8B8794",
"'  c #9F989D",
"]  c #989698",
"[  c #939290",
"{  c #A0999E",
"}  c #9A99A5",
"|  c #938DB2",
" . c #A29CAA",
".. c #A9A7AA",
"X. c #B6A7A9",
"o. c #B4B4AA",
"O. c #ACA9B7",
"+. c #B2ADB9",
"@. c #B2B4B5",
"#. c #BABDBA",
"$. c #B7B7B7",
"%. c #ADB4AE",
"&. c #AFAC9D",
"*. c #CC8D9E",
"=. c #D98692",
"-. c #C99894",
";. c #C79E9D",
":. c #D28F84",
">. c #EBA883",
",. c #E8BB9A",
"<. c #F5A98B",
"1. c #CB97A6",
"2. c #C98EB0",
"3. c #CBA2AD",
"4. c #CCAAB7",
"5. c #C1BCB2",
"6. c #CCB2BA",
"7. c #C1B9BD",
"8. c #D8B6BD",
"9. c #DBADAB",
"0. c #EAA998",
"q. c #BDC2BA",
"w. c #FFCB93",
"e. c #C2C3B5",
"r. c #C3C4BB",
"t. c #C7C7B7",
"y. c #D4D2BD",
"u. c #DAD4BD",
"i. c #D4CBBC",
"p. c #E3CAB7",
"a. c #E9C5A5",
"s. c #94B0C9",
"d. c #9DACD2",
"f. c #8BAAD3",
"g. c #AFB1C4",
"h. c #B5B7C7",
"j. c #A5B3D6",
"k. c #BCBFD3",
"l. c #B1BDD7",
"z. c #AEACC1",
"x. c #91AAE1",
"c. c #C2B9C5",
"v. c #CEADCF",
"b. c #8DCBD6",
"n. c #99CFD8",
"m. c #9AD0DE",
"M. c #BED5CB",
"N. c #BBC5D8",
"B. c #A8D6DE",
"V. c #81CCE4",
"C. c #89D2E2",
"Z. c #95D6E2",
"A. c #9DD9E1",
"S. c #94D0F0",
"D. c #BBC7E1",
"F. c #ABD4E3",
"G. c #A5D9E1",
"H. c #B2D5E4",
"J. c #BAD9E6",
"K. c #BED9EA",
"L. c #B7D6E5",
"P. c #ABC1F8",
"I. c #BAE4E0",
"U. c #C3C2C3",
"Y. c #CCCCCC",
"T. c #C8C7C5",
"R. c #D8CACC",
"E. c #CAD4C8",
"W. c #D6D5C0",
"Q. c #DCDAC3",
"!. c #D3D2CF",
"~. c #DDDBCC",
"^. c #DAD8C7",
"/. c #C4CCDD",
"(. c #C9CEDA",
"). c #C7CAD6",
"_. c #D2CCD1",
"`. c #CDD0DB",
"'. c #CFD1D2",
"]. c #D3D2D2",
"[. c #DAD6D5",
"{. c #DEDADA",
"}. c #DAD8D9",
"|. c #E3C3C7",
" X c #E1DBC1",
".X c #E4DCC7",
"XX c #E5DDDD",
"oX c #E0DCD1",
"OX c #C7E8DF",
"+X c #DCE1D2",
"@X c #D7E0DD",
"#X c #DBEBDD",
"$X c #E4E1C7",
"%X c #E9E2C4",
"&X c #E5E3CA",
"*X c #E8E4C9",
"=X c #EFE9CF",
"-X c #EBECD3",
";X c #EBE5DC",
":X c #EDE8DC",
">X c #E7E4D6",
",X c #EDF5DD",
"<X c #E6F2DD",
"1X c #C4CDE2",
"2X c #C9CCE0",
"3X c #D5C6E3",
"4X c #C3D3E6",
"5X c #C9D1E6",
"6X c #CED4EA",
"7X c #C4DAEB",
"8X c #CBDBEE",
"9X c #C2D3E8",
"0X c #D0D4E9",
"qX c #D4D9EE",
"wX c #CEDCF1",
"eX c #CBD2F7",
"rX c #D6DDF3",
"tX c #D9DDF3",
"yX c #D2D6F0",
"uX c #D9E0E5",
"iX c #DBE0EA",
"pX c #DEE0F7",
"aX c #C7EAEC",
"sX c #EDEAE1",
"dX c None",
/* pixels */
"dXdXdXdXdXdXdXdXdXdXdXdXdXdXdXdXdXdXdXdXdXdXdXdXdXdXdXdXdXdXdXdXdXdXdXdXdXdXdXdXdXdXdXdXdXdXdXdXdXdXdXdXdXdXdXdXdXdXdXdXdXdXdXdXdXdXdXdXdXdXdXdXdXdXdXdXdXdXdXdX",
"dXdXdXdXdXdXdXdXdXdXdXdXdXdXdXdXdXdXdXdXdXdXdXdXdXdXdXdXdXdXdX-X*X*X*X*X*X*X%X*X%X*X=X>X>X*X*X=XdXdXdXdXdXdXdXdXdXdXdXdXdXdXdXdXdXdXdXdXdXdXdXdXdXdXdXdXdXdXdXdX",
"dXdXdXdXdXdXdXdXdXdXdXdXdXdXdXdXdXdXdXdXdXdXdXdXdXdXdXdXdXdXdX*X%X+.7.%X%X%X%X%X%X%X%X%X%X%X%X%X*X;X>X:X*X.X*XoX%XsXdXdXdXdXdXdXdXdXdXdXdXdXdXdXdXdXdXdXdXdXdXdX",
"dXdXdXdXdXdXdXdXdXdXdXdXdXdXdXdXdXdXdXdXdXdXdXdXdXdXdXdXdXdXdX*XQ.l c %X%X%X%X%X%X%X%X%X%X%X%X%X%X%XQ.| A A O.|  .sXdXdXdXdXdXdXdXdXdXdXdXdXdXdXdXdXdXdXdXdXdXdX",
"dXdXdXdXdXdXdXdXdXdXdXdXdXdXdXdXdXdXdXdXdXdXdXdXdXdXdXdXdXdXdX*XA z x .X%X%X%X%X%X%X%X%X%X%X%X%X%X%X%X| c l  .x | sXdXdXdXdXdXdXdXdXdXdXdXdXdXdXdXdXdXdXdXdXdXdX",
"dXdXdXdXdXdXdXdXdXdXdXdXdXdXdXdXdXdXdXdXdXdXdXdXdXdXdXdXdXdXdX=Xx z c =X=X%X*X*X%X=X=X*Xu.%X%X%X.X.X%Xu.i.+. X7.c.sXdXdXdXdXdXdXdXdXdXdXdXdXdXdXdXdXdXdXdXdXdXdX",
"dXdXdXdXdXdXdXdXdXdXdXdXdXdXdXdXdXdXdXdXdXdXdXdXdXdXdXdXdXdXdX$XO.z x  X%X%X*X%X%X%X%X=X=X=X=X=X=X=X=X=X-X*X*X*X=X.XdXdXdXdXdXdXdXdXdXdXdXdXdXdXdXdXdXdXdXdXdXdX",
"dXdXdXdXdXdXdXdXdXdXdXdXdXdXdXdXdXdXdXdXdXdXdXdXdXdXdXdXdXdXdX&X Xl |  X X.Xu..Xu.%Xu.u.%Xu.u.u.u. Xu.<.e ,..Xa.a.$XdXdXdXdXdXdXdXdXdXdXdXdXdXdXdXdXdXdXdXdXdXdX",
"dXdXdXdXdXdXdXdXdXdXdXdXdXdXdXdXdXdXdXdXdXdXdXdXdXdXdXdXdXdXdX&X Xu. X X X X X X X Xu. Xu. X X.X.Xu.Q.>.8 e e 3 8 .XdXdXdXdXdXdXdXdXdXdXdXdXdXdXdXdXdXdXdXdXdXdX",
"dXdXdXdXdXdXdXdXdXdXdXdXdXdXdXdXdXdXdXdXdXdXdXdXdXdXdXdXdXdXdX&X X.X.Xu. X X Xu.u. X X X Xu. Xu.u. Xu.>.8 e 8 8 8 $XdXdXdXdXdXdXdXdXdXdXdXdXdXdXdXdXdXdXdXdXdXdX",
"dXdXdXdXdXdXdXdXdXdXdXdXdXdXdXdXdXdXdXdXdXdXdXdXdXdXdXdXdXdXdXY I I Q Q Q Q Q n.M.M.E.M.E.Q. X X%Xu. X,.Q.>.p.,.e $XdXdXdXdXdXdXdXdXdXdXdXdXdXdXdXdXdXdXdXdXdXdX",
"dXdXdXdXdXdXdXdXdXdXdXdXdXdXdXdXdXdXdXdXdXdXdXdXdXdXdXdXdXdX/ I I I I U I I I I I I I I U T T T T T b.b.b.b.n..XQ.$XdXdXdXdXdXdXdXdXdXdXdXdXdXdXdXdXdXdXdXdXdXdX",
"dXdXdXdXdXdXdXdXdXdXdXdXdXdXdXdXdXdXdXdXdXdXdXdXdXdXdXdXdXdXR I I I I I I I I I I I I I I I I I U I I I I I I I P p dXdXdXdXdXdXdXdXdXdXdXdXdXdXdXdXdXdXdXdXdXdX",
"dXdXdXdXdXdXdXdXdXdXdXdXdXdXdXdXdXdXdXdXdXdXdXdXdXdXdXdXdX/ I I I I I I I I I I I I I I I I I I I I I I I I I I H s @ dXdXdXdXdXdXdXdXdXdXdXdXdXdXdXdXdXdXdXdXdX",
"dXdXdXdXdXdXdXdXdXdXdXdXdXdXdXdXdXdXdXdXdXdXdXdXdXdXdXdXdXY I Y s.s.f.Y R R I I I I I I I I I I I I I I I I I P N s i dXdXdXdXdXdXdXdXdXdXdXdXdXdXdXdXdXdXdXdXdX",
"dXdXdXdXdXdXdXdXdXdXdXdXdXdXdXdXdXdXdXdXdXdXdXdXdXdXdXdX/ I I X.> 7 , y q 0 -.-.-.-.s./ / Y I I I I I I I I I P m s a u dXdXdXdXdXdXdXdXdXdXdXdXdXdXdXdXdXdXdXdX",
"dXdXdXdXdXdXdXdXdXdXdXdXdXdXdXdXdXdXdXdXdXdXdXdXdXdXdXdXR I Y 3 < t t w.< w.y q t 7 8 , > >.w w s.Q I I I I I H s b a i dXdXdXdXdXdXdXdXdXdXdXdXdXdXdXdXdXdXdXdX",
"dXdXdXdXdXdXdXdXdXdXdXdXdXdXdXdXdXdXdXdXdXdXdXdXdXdXdX/ I I I @.w w 0.0 1 9 < 3 7 9 q r 7 y 9 w.7 1 E I I I I n a a a a u dXdXdXdXdXdXdXdXdXdXdXdXdXdXdXdXdXdXdX",
"dXdXdXdXdXdXdXdXdXdXdXdXdXdXdXdXdXdXdXdXdXdXdXdXdXdXdXE I I I I U T T ( S.G.S.( -.-.:.< 3 r , t , > X.I I I P s a a a a i dXdXdXdXdXdXdXdXdXdXdXdXdXdXdXdXdXdXdX",
"dXdXdXdXdXdXdXdXdXdXdXdXdXdXdXdXdXdXdXdXdXdXdXdXdXdX( I Y ^ C.OX^ Z.C.T R ! V.Z.A.) U R R R s.X.w -.Y I I I H a a a a a a u dXdXdXdXdXdXdXdXdXdXdXdXdXdXdXdXdXdX",
"dXdXdXdXdXdXdXdXdXdXdXdXdXdXdXdXdXdXdXdXdXdXdXdXdXaX/ A.A.^ ^ Z.G.,X,X,X,X,XI.Z.! V.C.V.! U I I I I I I I I n J B n n n s s dXdXdXdXdXdXdXdXdXdXdXdXdXdXdXdXdXdX",
"dXdXdXdXdXdXdXdXdXdXdXdXdXdXdXdXdXdXdXdXdXdXdXdXdXA.^ G.OX<X,X,X,X,X,X,X,X,X,X,X,X#XOXG.^ A.^ I I I I I I G N B B B B B J f.dXdXdXdXdXdXdXdXdXdXdXdXdXdXdXdXdXdX",
"dXdXdXdXdXdXdXdXdXdXdXdXdXdXdXdXdXdXdXdXdXdXdXdXdXOX,X,X,X,X,X,X,X}  .#.E.,X,X,X,X,X,X,X,XG.^ Z.~ I I I I M J J B B B J x.).dXdXdXdXdXdXdXdXdXdXdXdXdXdXdXdXdXdX",
"dXdXdXdXdXdXdXdXdXdXdXdXdXdXdXdXdXdXdXdXdXdXdXdX,X,X,X,X,X,X,X,XE.q.} } %.@.q.#X%.t.,X,X,X<X<XG.! Z.I I I n J J B B K P.pXN.dXdXdXdXdXdXdXdXdXdXdXdXdXdXdXdXdXdX",
"dXdXdXdXdXdXdXdXdXdXdXdXdXdXdXdXdXdXdXdXdXdXdX,X,X,X,X,X,X,X,X,Xq.q.` }  .q...` } k q.,X,X,X,X,X#X^ Z.! G N B B B K eXpXpXg.dXdXdXdXdXdXdXdXdXdXdXdXdXdXdXdXdXdX",
"dXdXdXdXdXdXdXdXdXdXdXdXdXdXdXdXdXdXdXdXdXdXdX,X,X,X,X,X,X,X,X,X$._ k T.C ,X} } } #.+X<X,X,X,X,X,X,XI.^ W B B B K eXpXpXpXg.dXdXdXdXdXdXdXdXdXdXdXdXdXdXdXdXdXdX",
"dXdXdXdXdXdXdXdXdXdXdXdXdXdXdXdXdXdXdXdXdXdX,X,X,X,X,X,X,X,X,X,X,XE.U.%.M.` ..M.+X@.,X,X,X,X,X,X,X,X,XOXM B B K eXpXpXpXpXg.dXdXdXdXdXdXdXdXdXdXdXdXdXdXdXdXdXdX",
"dXdXdXdXdXdXdXdXdXdXdXdXdXdXdXdXdXdXdXdXdXdX$X*X*X=X-X-X,X,X,X,X,X,X,X,X,X,X'.%.] +X,X,X,X,X,X,X,X,X,X,XL B K eXtXtXpXpXpXg.dXdXdXdXdXdXdXdXdXdXdXdXdXdXdXdXdXdX",
"dXdXdXdXdXdXdXdXdXdXdXdXdXdXdXdXdXdXdXdXdXdXdX*X&X*X*X*X*X*X-X-X-X,X,X,X,X<X,X,X,X,X,X,X,X,X,X,X,X,X,XuXJ W eXtXK.wXpXpXpXg.dXdXdXdXdXdXdXdXdXdXdXdXdXdXdXdXdXdX",
"dXdXdXdXdXdXdXdXdXdXdXdXdXdXdXdXdXdXdXdXdXdXdX*X*X*X*X*X*X*X*X*X*X*X*X*X*X-X-X,X,X,X,X,X,X,X,X,X,X,X,XV.W tXtXK.tXK.pXpXtXdXdXdXdXdXdXdXdXdXdXdXdXdXdXdXdXdXdXdX",
"dXdXdXdXdXdXdXdXdXdXdXdXdXdXdXdXdXdXdXdXdXdXdX*X*X*X*X*X*X*X*X*X*X*Xy.*X*X*X%X*X*X*X*X&X-X-X,X,X,X,X,XiXpXpXK.wXH.K.H.tX0XdXdXdXdXdXdXdXdXdXdXdXdXdXdXdXdXdXdXdX",
"dXdXdXdXdXdXdXdXdXdXdXdXdXdXdXdXdXdXdXdXdXdXdX*X*X*X*X*X*X*X*X*X*X*Xo t.*X*X*X*X*X*X*X*X*X*X*X*X-X&X-XpXtXtXG.Z.wXeXL.pX0XdXdXdXdXdXdXdXdXdXdXdXdXdXdXdXdXdXdXdX",
"dXdXdXdXdXdXdXdXdXdXdXdXdXdXdXdXdXdXdXdXdXdXdX*X*X*X*X*X*X*X*X*X X5.+ { o.5...%X*X*X%X*X*X*X*X*X.X!.&XpXpXpXF.K.G.F.qXl.0XdXdXdXdXdXdXdXdXdXdXdXdXdXdXdXdXdXdXdX",
"dXdXdXdXdXdXdXdXdXdXdXdXdXdXdXdXdXdXdXdXdXdXdX*X*X*X*X*X*X*X*X*X XZ . ] y.*X= t.*X*X*X*X*X*X*X%X[.XX}.pXpXpXK.rXeXK.8XD.0XdXdXdXdXdXdXdXdXdXdXdXdXdXdXdXdXdXdXdX",
"dXdXdXdXdXdXdXdXdXdXdXdXdXdXdXdXdXdXdXdXdXdXdX*X*X*X*X&X*X%X*X*X*X*X+ 5.5..X=X*X%X*X%X9.p..X%X~.XXXX+XpXpXpXrXH.L.5Xm.N.0XdXdXdXdXdXdXdXdXdXdXdXdXdXdXdXdXdXdXdX",
"dXdXdXdXdXdXdXdXdXdXdXdXdXdXdXdXdXdXdXdXdXdXdX*X*X*X*X*X*X*X*X*XW.g X X.o.= 5.*X=X%X.XF 4 9.XXXXXXXX+XpXpXpXpX6X5Xm.F.D./.dXdXdXdXdXdXdXdXdXdXdXdXdXdXdXdXdXdXdX",
"dXdXdXdXdXdXdXdXdXdXdXdXdXdXdXdXdXdXdXdXdXdXdX&X*X*X*X*X*X*X$X*XZ { # %X*X.X= *X*X*X X=.=.v.XXXXXX}.@XpXpXpXqX6XF.wX9XN.k.dXdXdXdXdXdXdXdXdXdXdXdXdXdXdXdXdXdXdX",
"dXdXdXdXdXdXdXdXdXdXdXdXdXdXdXdXdXdXdXdXdXdXdX*X*X*X*X*X*X*X*X*X5.= # { ` j = *X*X*X*X*X.XXXXXXXXX`.@XpXpXpX1XK.F.tX1X1Xk.dXdXdXdXdXdXdXdXdXdXdXdXdXdXdXdXdXdXdX",
"dXdXdXdXdXdXdXdXdXdXdXdXdXdXdXdXdXdXdXdXdXdXdX*X*X*X*X*X*X*X*X*X.X%X{ *X` ` 5.*X*X*X*XD 4 |.XX{.`./.@XpXpX1XK.F.tX1XtX1Xk.dXdXdXdXdXdXdXdXdXdXdXdXdXdXdXdXdXdXdX",
"dXdXdXdXdXdXdXdXdXdXdXdXdXdXdXdXdXdXdXdXdXdXdX&X*X*X*X*X*X*X*X*Xt.*X*X*X*X%X*X*X*X$X~.D 8.8.}.(./.).@XpX5X8Xm.wX1X3X2.5Xk.dXdXdXdXdXdXdXdXdXdXdXdXdXdXdXdXdXdXdX",
"dXdXdXdXdXdXdXdXdXdXdXdXdXdXdXdXdXdXdXdXdXdXdXdX*X*X*X*X%X*X*X*X5.] .X*X*X*X*X*X*X$XXXXXXXXX/.(.'.*X}.6XL.b.wX0X6X2.3X1XN.dXdXdXdXdXdXdXdXdXdXdXdXdXdXdXdXdXdXdX",
"dXdXdXdXdXdXdXdXdXdXdXdXdXdXdXdXdXdXdXdXdXdXdXdX*X*X*X*X*X*X*X*X5.j *X*X*X{ 5.*X.X!.XXXX|.5X(.).~.*X@X/.F.b.6X0X2.v.pX1Xg.dXdXdXdXdXdXdXdXdXdXdXdXdXdXdXdXdXdXdX",
"dXdXdXdXdXdXdXdXdXdXdXdXdXdXdXdXdXdXdXdXdXdXdXdX*X*X*X*X*X*X*X*X5.{ *X*X*X*X= *XoXXXXX|.S c.!.*X*X*X@X/.K.rX1Xv.3XpXK.1XdXdXdXdXdXdXdXdXdXdXdXdXdXdXdXdXdXdXdXdX",
"dXdXdXdXdXdXdXdXdXdXdXdXdXdXdXdXdXdXdXdXdXdXdXdX*X&X*X*X&X*X*X*X5.Z *X*X*X$X# .XXXXXXX}.4.!.*X*X*X&XqXD.tX5Xl.3XeXF.7X9XdXdXdXdXdXdXdXdXdXdXdXdXdXdXdXdXdXdXdXdX",
"dXdXdXdXdXdXdXdXdXdXdXdXdXdXdXdXdXdXdXdXdXdXdXdX*X*XQ.$X*X*X$XW.t.# ` *X*X*X{ [.XXXXXXv.).~.*X*X*X+XuX1X/.1X8X8X7XB.pX1XdXdXdXdXdXdXdXdXdXdXdXdXdXdXdXdXdXdXdXdX",
"dXdXdXdXdXdXdXdXdXdXdXdXdXdXdXdXdXdXdXdXdXdXdXdX%Xt.$X$X*X*XQ.y.u.i.y.*X*X*XoXXXXXXX}.2.~.*X*X*X*X+XuXN.9X6XwXF.pXrXwX4XdXdXdXdXdXdXdXdXdXdXdXdXdXdXdXdXdXdXdXdX",
"dXdXdXdXdXdXdXdXdXdXdXdXdXdXdXdXdXdXdXdXdXdXdXdX*Xq.y.$X*X*X*X*X%XW..X*X*X.X{.XXXX{./.8.*X*X*X*X*X+XiX1X8X7XB.8XwXB.N.6XdXdXdXdXdXdXdXdXdXdXdXdXdXdXdXdXdXdXdXdX",
"dXdXdXdXdXdXdXdXdXdXdXdXdXdXdXdXdXdXdXdXdXdXdXdX&Xq.$X$Xy.$X*X*X*Xo.Z *X*XoXXXXXXX/.].p.*X*X%X*X*X&XiX1XK.B.J.rXJ.4X6X/.dXdXdXdXdXdXdXdXdXdXdXdXdXdXdXdXdXdXdXdX",
"dXdXdXdXdXdXdXdXdXdXdXdXdXdXdXdXdXdXdXdXdXdXdXdX*XQ.y.&X*X*Xy..Xt..X# *X.XXXXXXX`./..X=.S p.*X*X*X+XiX1X7X8XiXG.rX6XpXN.dXdXdXdXdXdXdXdXdXdXdXdXdXdXdXdXdXdXdXdX",
"dXdXdXdXdXdXdXdXdXdXdXdXdXdXdXdXdXdXdXdXdXdXdXdX*X*Xq.*X*X*X$X*X*X{ = *X[.XXXX`.(.].*Xp.9.u.u.*X*X&XiX1XpXH.H.7X1XpX5Xj.dXdXdXdXdXdXdXdXdXdXdXdXdXdXdXdXdXdXdXdX",
"dXdXdXdXdXdXdXdXdXdXdXdXdXdXdXdXdXdXdXdXdXdXdXdX&X*Xq.*X~.~.[.`.}.C _ `.[.XXXX/.`.&X*Xu.p.%X~.y.*X+XuX1XpXB.wX/.pXqX1Xh.dXdXdXdXdXdXdXdXdXdXdXdXdXdXdXdXdXdXdXdX",
"dXdXdXdXdXdXdXdXdXdXdXdXdXdXdXdXdXdXdXdXdXdXdXdX&X*Xt.-X:X:XXXXXXX_ _ oXXXXXz.(.(.(.}.6.1.y.Q.Q.*X+XpX1XrX8X6XrXrX0XqXh.dXdXdXdXdXdXdXdXdXdXdXdXdXdXdXdXdXdXdXdX",
"dXdXdXdXdXdXdXdXdXdXdXdXdXdXdXdXdXdXdXdXdXdXdXdX&X&Xe.[.;X:X;X;XsXXXO | c.f 7.XXXX{.XXXXD R.Y.W.*X+XpX1XpXrX2XpX1XJ.L.h.dXdXdXdXdXdXdXdXdXdXdXdXdXdXdXdXdXdXdXdX",
"dXdXdXdXdXdXdXdXdXdXdXdXdXdXdXdXdXdXdXdXdXdXdXdX&X&Xy.E.[.>X:X:X;X;XR.Z C _.;XXXXX;X;X:X|.:XY.W.*X+XtX1XrX5XpX1X9XJ.D.h.dXdXdXdXdXdXdXdXdXdXdXdXdXdXdXdXdXdXdXdX",
"dXdXdXdXdXdXdXdXdXdXdXdXdXdXdXdXdXdXdXdXdXdXdXdX&Xy.o.!.{.{.{.XXT.` :X:X;X;X:X;X;X;X;X1.=.6.q.*X*X+XpX1X5XtXtX6XF.4XqXg.dXdXdXdXdXdXdXdXdXdXdXdXdXdXdXdXdXdXdXdX",
"dXdXdXdXdXdXdXdXdXdXdXdXdXdXdXdXdXdXdXdXdXdXdXdXdX6 ] $ $.XX{.{.{.O XXXXoX$.].!.!.!.!.4.1.6.#.*X*X+X8XN.rXpX1X4XH.5XpXg.dXdXdXdXdXdXdXdXdXdXdXdXdXdXdXdXdXdXdXdX",
"dXdXdXdXdXdXdXdXdXdXdXdXdXdXdXdXdXdXdXdXdXdXdXdXdX6 u.- ` {.{.{.h.# {.{.Y.O.h Y.Y.Y.Y.T.6.T.#.*X*X+XpXqXpX/.rXL.N.pXpXg.dXdXdXdXdXdXdXdXdXdXdXdXdXdXdXdXdXdXdXdX",
"dXdXdXdXdXdXdXdXdXdXdXdXdXdXdXdXdXdXdXdXdXdXdXdXdXy.[ [ ` {.{.{.c.& O._.]._.o h.Y.Y.Y.4 5 3.#.*X*X+XpXpXqX0XJ.L.6XpXpXg.dXdXdXdXdXdXdXdXdXdXdXdXdXdXdXdXdXdXdXdX",
"dXdXdXdXdXdXdXdXdXdXdXdXdXdXdXdXdXdXdXdXdXdXdXdXdX*X$ $ ` oX{.{.XXf # {.{.].o @.Y.Y.Y.S *.1.e.*X*X}.pXpX1XK.J.2XpXpXpXdXdXdXdXdXdXdXdXdXdXdXdXdXdXdXdXdXdXdXdXdX",
"dXdXdXdXdXdXdXdXdXdXdXdXdXdXdXdXdXdXdXdXdXdXdXdXdX*X; 6 ` {.{.{.{.Y.C XX{.[.c.Y.Y.Y.Y.6.1.Y.e.*X&XuXtX5XJ.B.4XqXpXpX6XdXdXdXdXdXdXdXdXdXdXdXdXdXdXdXdXdXdXdXdXdX",
"dXdXdXdXdXdXdXdXdXdXdXdXdXdXdXdXdXdXdXdXdXdXdXdXdX&X$ - } U.{.{.{.{.{.{.].[.].Y.Y.Y.Y.3.*.3.q.*X*XuXrX4XH.9X5XpXpXpX0XdXdXdXdXdXdXdXdXdXdXdXdXdXdXdXdXdXdXdXdXdX",
"dXdXdXdXdXdXdXdXdXdXdXdXdXdXdXdXdXdXdXdXdXdXdXdXdX&X6 [ ] @.{.{.{.}.k } h Y.Y.Y.Y.Y.Y.Y.T.i.q.*X&XuX6X6XJ.1XpXpXpXtX0XdXdXdXdXdXdXdXdXdXdXdXdXdXdXdXdXdXdXdXdXdX",
"dXdXdXdXdXdXdXdXdXdXdXdXdXdXdXdXdXdXdXdXdXdXdXdXdX%Xu.6 - h.{.{.{.O.. f f ].'.Y.Y.Y.Y.Y.1.@.*X*X*XuX6XJ.0XqXpXpXpXpXk.dXdXdXdXdXdXdXdXdXdXdXdXdXdXdXdXdXdXdXdXdX",
"dXdXdXdXdXdXdXdXdXdXdXdXdXdXdXdXdXdXdXdXdXdXdXdXdX%Xu.- : {.{.{.XXO.h & X + O.Y.Y.Y.Y.4.F X.*X*X&XuX1XpX1XpXpXpXpX0XdXdXdXdXdXdXdXdXdXdXdXdXdXdXdXdXdXdXdXdXdXdX",
"dXdXdXdXdXdXdXdXdXdXdXdXdXdXdXdXdXdXdXdXdXdXdXdXdX*Xy.% [ +X}.}.O.h h # h +.Y.Y.Y.Y.Y.Y.T.X.*X*X*XuX1X1XpXpXpXpXtXk.dXdXdXdXdXdXdXdXdXdXdXdXdXdXdXdXdXdXdXdXdXdX",
"dXdXdXdXdXdXdXdXdXdXdXdXdXdXdXdXdXdXdXdXdXdXdXdXdX&Xy.] q.t.XX@XXXh.h.h # h + } Y.Y.Y.Y.S o.*X*X&XuXN.6XpXpXpXpX2XdXdXdXdXdXdXdXdXdXdXdXdXdXdXdXdXdXdXdXdXdXdXdX",
"dXdXdXdXdXdXdXdXdXdXdXdXdXdXdXdXdXdXdXdXdXdXdXdXdXdXu.  ; Y.{.{.{.XXXXC C ].{.'.Y.Y.Y.4.1...*X*X&XuX1XpXpXpXpXpXg.dXdXdXdXdXdXdXdXdXdXdXdXdXdXdXdXdXdXdXdXdXdXdX",
"dXdXdXdXdXdXdXdXdXdXdXdXdXdXdXdXdXdXdXdXdXdXdXdXdXdX*X2 - r.{.{.{.{.{.O._ XX'._.Y.Y.Y.Y.6.q.*X%X+XiXtXpXD.yXtX/.dXdXdXdXdXdXdXdXdXdXdXdXdXdXdXdXdXdXdXdXdXdXdXdX",
"dXdXdXdXdXdXdXdXdXdXdXdXdXdXdXdXdXdXdXdXdXdXdXdXdXdX*X*X&.%.{.{.{.{.].Y.[.XX{.'.Y.Y.Y.4.Y.e.*X*X>XpXl.j.v 1XyXdXdXdXdXdXdXdXdXdXdXdXdXdXdXdXdXdXdXdXdXdXdXdXdXdX",
"dXdXdXdXdXdXdXdXdXdXdXdXdXdXdXdXdXdXdXdXdXdXdXdXdXdX*X*X*Xq.{.{.XXC h * Y.Y.{._.Y.Y.!.c.Y.e.*X*X{.tXd.pXj.eX).dXdXdXdXdXdXdXdXdXdXdXdXdXdXdXdXdXdXdXdXdXdXdXdXdX",
"dXdXdXdXdXdXdXdXdXdXdXdXdXdXdXdXdXdXdXdXdXdXdXdXdXdX*X*X*X%.{.{.[.C C f h . {.].Y.T.Y.*.3.9.$X*X+Xj.eXpX1XD.dXdXdXdXdXdXdXdXdXdXdXdXdXdXdXdXdXdXdXdXdXdXdXdXdXdX",
"dXdXdXdXdXdXdXdXdXdXdXdXdXdXdXdXdXdXdXdXdXdXdXdXdXdX*X*X*Xq.Y.{.XX| X . h * {.{.Y.Y.Y.1.*.9.*X*X&XiXj.tXj.h.dXdXdXdXdXdXdXdXdXdXdXdXdXdXdXdXdXdXdXdXdXdXdXdXdXdX",
"dXdXdXdXdXdXdXdXdXdXdXdXdXdXdXdXdXdXdXdXdXdXdXdXdXdX&X*X*Xu.q.@XY.k O & h.h {.{.].Y.Y.Y.M.u.*X*X+X0Xf.d.qXdXdXdXdXdXdXdXdXdXdXdXdXdXdXdXdXdXdXdXdXdXdXdXdXdXdXdX",
"dXdXdXdXdXdXdXdXdXdXdXdXdXdXdXdXdXdXdXdXdXdXdXdXdXdX&X&X&X*XQ.r.XXh.* h $.h {.XX].Y.Y.Y.#.u.*X*X+Xd.c qXh.dXdXdXdXdXdXdXdXdXdXdXdXdXdXdXdXdXdXdXdXdXdXdXdXdXdXdX",
"dXdXdXdXdXdXdXdXdXdXdXdXdXdXdXdXdXdXdXdXdXdXdXdXdXdXdXdXdX&X*X*Xq.W.} ..c.# _ C [.Y.Y.Y.#.*X*X*X&XiX9XN.dXdXdXdXdXdXdXdXdXdXdXdXdXdXdXdXdXdXdXdXdXdXdXdXdXdXdXdX",
"dXdXdXdXdXdXdXdXdXdXdXdXdXdXdXdXdXdXdXdXdXdXdXdXdXdXdXdXdXdX&X&X&X^.t.e.r.r.k  .{.'.Y.r.q.*X*X*X@XpXqXdXdXdXdXdXdXdXdXdXdXdXdXdXdXdXdXdXdXdXdXdXdXdXdXdXdXdXdXdX",
"dXdXdXdXdXdXdXdXdXdXdXdXdXdXdXdXdXdXdXdXdXdXdXdXdXdXdXdXdXdXdXdXdXdX*X*Xy.%.t.t.r.r.q.y.*X*X*X*XuXpX/.dXdXdXdXdXdXdXdXdXdXdXdXdXdXdXdXdXdXdXdXdXdXdXdXdXdXdXdXdX",
"dXdXdXdXdXdXdXdXdXdXdXdXdXdXdXdXdXdXdXdXdXdXdXdXdXdXdXdXdXdXdXdXdXdXdXdXdXdX&X*X$X*X*X*X*X*X*X*X}.0XdXdXdXdXdXdXdXdXdXdXdXdXdXdXdXdXdXdXdXdXdXdXdXdXdXdXdXdXdXdX",
"dXdXdXdXdXdXdXdXdXdXdXdXdXdXdXdXdXdXdXdXdXdXdXdXdXdXdXdXdXdXdXdXdXdXdXdXdXdXdXdXdXdXdX*X&X*X&X*X@XdXdXdXdXdXdXdXdXdXdXdXdXdXdXdXdXdXdXdXdXdXdXdXdXdXdXdXdXdXdXdX",
"dXdXdXdXdXdXdXdXdXdXdXdXdXdXdXdXdXdXdXdXdXdXdXdXdXdXdXdXdXdXdXdXdXdXdXdXdXdXdXdXdXdXdXdXdXdXdX&XdXdXdXdXdXdXdXdXdXdXdXdXdXdXdXdXdXdXdXdXdXdXdXdXdXdXdXdXdXdXdXdX"
};
