/* XPM */
static char *result[] = {
/* columns rows colors chars-per-pixel */
"80 80 26 1 ",
"  c #4F65DC",
". c #4C7FDF",
"X c #7F5FF6",
"o c #805FF6",
"O c #815FF7",
"+ c #906EF6",
"@ c #926EF6",
"# c #807FFD",
"$ c #807FFE",
"% c #A07FF6",
"& c #4C80DF",
"* c #52ADCB",
"= c #649FE5",
"- c #80B2DF",
"; c #9F9CE6",
": c #8080FD",
"> c #9F80F5",
", c #809FF6",
"< c #9091F4",
"1 c #9292F5",
"2 c #A09CE5",
"3 c #A080F5",
"4 c #A080F6",
"5 c #80B1E0",
"6 c #80A0F5",
"7 c #80A0F6",
/* pixels */
";--------------------------------------52--------------------------------------*",
"4$$$$$$$$$$$$$$$$$$$$$$$$$$$$$$$$$$$$$$$3$$$$$$$$$$$$$$$$$$$$$$$$$$$$$$$$$$$$$$&",
"4$$$$$$$$$$$$$$$$$$$$$$$$$$$$$$$$$$$$$$$4$$$$$$$$$$$$$$$$$$$$$$$$$$$$$$$$$$$$$$&",
"4$$$$$$$$$$$$$$$$$$$$$$$$$$$$$$$$$$$$$$$4$$$$$$$$$$$$$$$$$$$$$$$$$$$$$$$$$$$$$$&",
"4$$$$$$$$$$$$$$$$$$$$$$$$$$$$$$$$$$$$$$$4$$$$$$$$$$$$$$$$$$$$$$$$$$$$$$$$$$$$$$&",
"4$$$$$$$$$$$$$$$$$$$$$$$$$$$$$$$$$$$$$$$4$$$$$$$$$$$$$$$$$$$$$$$$$$$$$$$$$$$$$$&",
"4$$$$$$$$$$$$$$$$$$$$$$$$$$$$$$$$$$$$$$$4$$$$$$$$$$$$$$$$$$$$$$$$$$$$$$$$$$$$$$&",
"4$$$$$$$$$$$$$$$$$$$$$$$$$$$$$$$$$$$$$$$4$$$$$$$$$$$$$$$$$$$$$$$$$$$$$$$$$$$$$$&",
"4$$$$$$$$$$$$$$$$$$$$$$$$$$$$$$$$$$$$$$$4$$$$$$$$$$$$$$$$$$$$$$$$$$$$$$$$$$$$$$&",
"4$$$$$$$$$$$$$$$$$$$$$$$$$$$$$$$$$$$$$$$4$$$$$$$$$$$$$$$$$$$$$$$$$$$$$$$$$$$$$$&",
"4$$$$$$$$$$$$$$$$$$$$$$$$$$$$$$$$$$$$$$$4$$$$$$$$$$$$$$$$$$$$$$$$$$$$$$$$$$$$$$&",
"4$$$$$$$$$$$$$$$$$$$$$$$$$$$$$$$$$$$$$$$4$$$$$$$$$$$$$$$$$$$$$$$$$$$$$$$$$$$$$$&",
"4$$$$$$$$$$$$$$$$$$$$$$$$$$$$$$$$$$$$$$$4$$$$$$$$$$$$$$$$$$$$$$$$$$$$$$$$$$$$$$&",
"4$$$$$$$$$$$$$$$$$$$$$$$$$$$$$$$$$$$$$$$4$$$$$$$$$$$$$$$$$$$$$$$$$$$$$$$$$$$$$$&",
"4$$$$$$$$$$$$$$$$$$$$$$$$$$$$$$$$$$$$$$$4$$$$$$$$$$$$$$$$$$$$$$$$$$$$$$$$$$$$$$&",
"4$$$$$$$$$$$$$$$$$$$$$$$$$$$$$$$$$$$$$$$4$$$$$$$$$$$$$$$$$$$$$$$$$$$$$$$$$$$$$$&",
"4$$$$$$$$$$$$$$$$$$$$$$$$$$$$$$$$$$$$$$$4$$$$$$$$$$$$$$$$$$$$$$$$$$$$$$$$$$$$$$&",
"4$$$$$$$$$$$$$$$$$$$$$$$$$$$$$$$$$$$$$$$4$$$$$$$$$$$$$$$$$$$$$$$$$$$$$$$$$$$$$$&",
"4$$$$$$$$$$$$$$$$$$$$$$$$$$$$$$$$$$$$$$$4$$$$$$$$$$$$$$$$$$$$$$$$$$$$$$$$$$$$$$&",
"4$$$$$$$$$$$$$$$$$$$$$$$$$$$$$$$$$$$$$$$4$$$$$$$$$$$$$$$$$$$$$$$$$$$$$$$$$$$$$$&",
"4$$$$$$$$$$$$$$$$$$$$$$$$$$$$$$$$$$$$$$$4$$$$$$$$$$$$$$$$$$$$$$$$$$$$$$$$$$$$$$&",
"4$$$$$$$$$$$$$$$$$$$$$$$$$$$$$$$$$$$$$$$4$$$$$$$$$$$$$$$$$$$$$$$$$$$$$$$$$$$$$$&",
"4$$$$$$$$$$$$$$$$$$$$$$$$$$$$$$$$$$$$$$$4$$$$$$$$$$$$$$$$$$$$$$$$$$$$$$$$$$$$$$&",
"4$$$$$$$$$$$$$$$$$$$$$$$$$$$$$$$$$$$$$$$4$$$$$$$$$$$$$$$$$$$$$$$$$$$$$$$$$$$$$$&",
"4$$$$$$$$$$$$$$$$$$$$$$$$$$$$$$$$$$$$$$$4$$$$$$$$$$$$$$$$$$$$$$$$$$$$$$$$$$$$$$&",
"4$$$$$$$$$$$$$$$$$$$$$$$$$$$$$$$$$$$$$$$4$$$$$$$$$$$$$$$$$$$$$$$$$$$$$$$$$$$$$$&",
"4$$$$$$$$$$$$$$$$$$$$$$$$$$$$$$$$$$$$$$$4$$$$$$$$$$$$$$$$$$$$$$$$$$$$$$$$$$$$$$&",
"4$$$$$$$$$$$$$$$$$$$$$$$$$$$$$$$$$$$$$$$4$$$$$$$$$$$$$$$$$$$$$$$$$$$$$$$$$$$$$$&",
"4$$$$$$$$$$$$$$$$$$$$$$$$$$$$$$$$$$$$$$$4$$$$$$$$$$$$$$$$$$$$$$$$$$$$$$$$$$$$$$&",
"4$$$$$$$$$$$$$$$$$$$$$$$$$$$$$$$$$$$$$$$4$$$$$$$$$$$$$$$$$$$$$$$$$$$$$$$$$$$$$$&",
"4$$$$$$$$$$$$$$$$$$$$$$$$$$$$$$$$$$$$$$$4$$$$$$$$$$$$$$$$$$$$$$$$$$$$$$$$$$$$$$&",
"4$$$$$$$$$$$$$$$$$$$$$$$$$$$$$$$$$$$$$$$4$$$$$$$$$$$$$$$$$$$$$$$$$$$$$$$$$$$$$$&",
"4$$$$$$$$$$$$$$$$$$$$$$$$$$$$$$$$$$$$$$$4$$$$$$$$$$$$$$$$$$$$$$$$$$$$$$$$$$$$$$&",
"4$$$$$$$$$$$$$$$$$$$$$$$$$$$$$$$$$$$$$$$4$$$$$$$$$$$$$$$$$$$$$$$$$$$$$$$$$$$$$$&",
"4$$$$$$$$$$$$$$$$$$$$$$$$$$$$$$$$$$$$$$$4$$$$$$$$$$$$$$$$$$$$$$$$$$$$$$$$$$$$$$&",
"4$$$$$$$$$$$$$$$$$$$$$$$$$$$$$$$$$$$$$$$4$$$$$$$$$$$$$$$$$$$$$$$$$$$$$$$$$$$$$$&",
"4$$$$$$$$$$$$$$$$$$$$$$$$$$$$$$$$$$$$$$$4$$$$$$$$$$$$$$$$$$$$$$$$$$$$$$$$$$$$$$&",
"4$$$$$$$$$$$$$$$$$$$$$$$$$$$$$$$$$$$$$$$4$$$$$$$$$$$$$$$$$$$$$$$$$$$$$$$$$$$$$$&",
"4$$$$$$$$$$$$$$$$$$$$$$$$$$$$$$$$$$$$$$$4$$$$$$$$$$$$$$$$$$$$$$$$$$$$$$$$$$$$$$&",
">#::::::::::::::::::::::::::::::::::::::>#::::::::::::::::::::::::::::::::::::#.",
"<,77777777777777777777777777777777777776167777777777777777777777777777777777777=",
"4$$$$$$$$$$$$$$$$$$$$$$$$$$$$$$$$$$$$$$$4$$$$$$$$$$$$$$$$$$$$$$$$$$$$$$$$$$$$$$&",
"4$$$$$$$$$$$$$$$$$$$$$$$$$$$$$$$$$$$$$$$4$$$$$$$$$$$$$$$$$$$$$$$$$$$$$$$$$$$$$$&",
"4$$$$$$$$$$$$$$$$$$$$$$$$$$$$$$$$$$$$$$$4$$$$$$$$$$$$$$$$$$$$$$$$$$$$$$$$$$$$$$&",
"4$$$$$$$$$$$$$$$$$$$$$$$$$$$$$$$$$$$$$$$4$$$$$$$$$$$$$$$$$$$$$$$$$$$$$$$$$$$$$$&",
"4$$$$$$$$$$$$$$$$$$$$$$$$$$$$$$$$$$$$$$$4$$$$$$$$$$$$$$$$$$$$$$$$$$$$$$$$$$$$$$&",
"4$$$$$$$$$$$$$$$$$$$$$$$$$$$$$$$$$$$$$$$4$$$$$$$$$$$$$$$$$$$$$$$$$$$$$$$$$$$$$$&",
"4$$$$$$$$$$$$$$$$$$$$$$$$$$$$$$$$$$$$$$$4$$$$$$$$$$$$$$$$$$$$$$$$$$$$$$$$$$$$$$&",
"4$$$$$$$$$$$$$$$$$$$$$$$$$$$$$$$$$$$$$$$4$$$$$$$$$$$$$$$$$$$$$$$$$$$$$$$$$$$$$$&",
"4$$$$$$$$$$$$$$$$$$$$$$$$$$$$$$$$$$$$$$$4$$$$$$$$$$$$$$$$$$$$$$$$$$$$$$$$$$$$$$&",
"4$$$$$$$$$$$$$$$$$$$$$$$$$$$$$$$$$$$$$$$4$$$$$$$$$$$$$$$$$$$$$$$$$$$$$$$$$$$$$$&",
"4$$$$$$$$$$$$$$$$$$$$$$$$$$$$$$$$$$$$$$$4$$$$$$$$$$$$$$$$$$$$$$$$$$$$$$$$$$$$$$&",
"4$$$$$$$$$$$$$$$$$$$$$$$$$$$$$$$$$$$$$$$4$$$$$$$$$$$$$$$$$$$$$$$$$$$$$$$$$$$$$$&",
"4$$$$$$$$$$$$$$$$$$$$$$$$$$$$$$$$$$$$$$$4$$$$$$$$$$$$$$$$$$$$$$$$$$$$$$$$$$$$$$&",
"4$$$$$$$$$$$$$$$$$$$$$$$$$$$$$$$$$$$$$$$4$$$$$$$$$$$$$$$$$$$$$$$$$$$$$$$$$$$$$$&",
"4$$$$$$$$$$$$$$$$$$$$$$$$$$$$$$$$$$$$$$$4$$$$$$$$$$$$$$$$$$$$$$$$$$$$$$$$$$$$$$&",
"4$$$$$$$$$$$$$$$$$$$$$$$$$$$$$$$$$$$$$$$4$$$$$$$$$$$$$$$$$$$$$$$$$$$$$$$$$$$$$$&",
"4$$$$$$$$$$$$$$$$$$$$$$$$$$$$$$$$$$$$$$$4$$$$$$$$$$$$$$$$$$$$$$$$$$$$$$$$$$$$$$&",
"4$$$$$$$$$$$$$$$$$$$$$$$$$$$$$$$$$$$$$$$4$$$$$$$$$$$$$$$$$$$$$$$$$$$$$$$$$$$$$$&",
"4$$$$$$$$$$$$$$$$$$$$$$$$$$$$$$$$$$$$$$$4$$$$$$$$$$$$$$$$$$$$$$$$$$$$$$$$$$$$$$&",
"4$$$$$$$$$$$$$$$$$$$$$$$$$$$$$$$$$$$$$$$4$$$$$$$$$$$$$$$$$$$$$$$$$$$$$$$$$$$$$$&",
"4$$$$$$$$$$$$$$$$$$$$$$$$$$$$$$$$$$$$$$$4$$$$$$$$$$$$$$$$$$$$$$$$$$$$$$$$$$$$$$&",
"4$$$$$$$$$$$$$$$$$$$$$$$$$$$$$$$$$$$$$$$4$$$$$$$$$$$$$$$$$$$$$$$$$$$$$$$$$$$$$$&",
"4$$$$$$$$$$$$$$$$$$$$$$$$$$$$$$$$$$$$$$$4$$$$$$$$$$$$$$$$$$$$$$$$$$$$$$$$$$$$$$&",
"4$$$$$$$$$$$$$$$$$$$$$$$$$$$$$$$$$$$$$$$4$$$$$$$$$$$$$$$$$$$$$$$$$$$$$$$$$$$$$$&",
"4$$$$$$$$$$$$$$$$$$$$$$$$$$$$$$$$$$$$$$$4$$$$$$$$$$$$$$$$$$$$$$$$$$$$$$$$$$$$$$&",
"4$$$$$$$$$$$$$$$$$$$$$$$$$$$$$$$$$$$$$$$4$$$$$$$$$$$$$$$$$$$$$$$$$$$$$$$$$$$$$$&",
"4$$$$$$$$$$$$$$$$$$$$$$$$$$$$$$$$$$$$$$$4$$$$$$$$$$$$$$$$$$$$$$$$$$$$$$$$$$$$$$&",
"4$$$$$$$$$$$$$$$$$$$$$$$$$$$$$$$$$$$$$$$4$$$$$$$$$$$$$$$$$$$$$$$$$$$$$$$$$$$$$$&",
"4$$$$$$$$$$$$$$$$$$$$$$$$$$$$$$$$$$$$$$$4$$$$$$$$$$$$$$$$$$$$$$$$$$$$$$$$$$$$$$&",
"4$$$$$$$$$$$$$$$$$$$$$$$$$$$$$$$$$$$$$$$4$$$$$$$$$$$$$$$$$$$$$$$$$$$$$$$$$$$$$$&",
"4$$$$$$$$$$$$$$$$$$$$$$$$$$$$$$$$$$$$$$$4$$$$$$$$$$$$$$$$$$$$$$$$$$$$$$$$$$$$$$&",
"4$$$$$$$$$$$$$$$$$$$$$$$$$$$$$$$$$$$$$$$4$$$$$$$$$$$$$$$$$$$$$$$$$$$$$$$$$$$$$$&",
"4$$$$$$$$$$$$$$$$$$$$$$$$$$$$$$$$$$$$$$$4$$$$$$$$$$$$$$$$$$$$$$$$$$$$$$$$$$$$$$&",
"4$$$$$$$$$$$$$$$$$$$$$$$$$$$$$$$$$$$$$$$4$$$$$$$$$$$$$$$$$$$$$$$$$$$$$$$$$$$$$$&",
"4$$$$$$$$$$$$$$$$$$$$$$$$$$$$$$$$$$$$$$$4$$$$$$$$$$$$$$$$$$$$$$$$$$$$$$$$$$$$$$&",
"4$$$$$$$$$$$$$$$$$$$$$$$$$$$$$$$$$$$$$$$4$$$$$$$$$$$$$$$$$$$$$$$$$$$$$$$$$$$$$$&",
"4$$$$$$$$$$$$$$$$$$$$$$$$$$$$$$$$$$$$$$$4$$$$$$$$$$$$$$$$$$$$$$$$$$$$$$$$$$$$$$&",
"%$$$$$$$$$$$$$$$$$$$$$$$$$$$$$$$$$$$$$$$4$$$$$$$$$$$$$$$$$$$$$$$$$$$$$$$$$$$$$$&",
"@ooooooooooooooooooooooooooooooooooooooO+Xooooooooooooooooooooooooooooooooooooo "
};
