/* XPM */
static char *result[] = {
/* columns rows colors chars-per-pixel */
"80 80 80 1 ",
"  c #5C58E9",
". c #774DEE",
"X c #7C4AED",
"o c #7C4EF1",
"O c #7A54F1",
"+ c #7C5CF2",
"@ c #4E69E9",
"# c #5760EE",
"$ c #4C7FEB",
"% c #6E6EFB",
"& c #7B61F5",
"* c #7B68F7",
"= c #7E65F8",
"- c #7E6CFB",
"; c #6373F3",
": c #6977F4",
"> c #677EF6",
", c #6A7FF7",
"< c #6B7FFA",
"1 c #7373FC",
"2 c #7D73FD",
"3 c #737EFD",
"4 c #7F7FFE",
"5 c #844BED",
"6 c #9F58E9",
"7 c #814EF1",
"8 c #8354F1",
"9 c #815CF2",
"0 c #8361F6",
"q c #8268F7",
"w c #816DFA",
"e c #8F6EFB",
"r c #8273FC",
"t c #8A73FC",
"y c #837AFD",
"u c #8B7EFC",
"i c #9477F4",
"p c #9973F3",
"a c #947FF7",
"s c #927FF9",
"d c #A660EE",
"f c #AD69E9",
"g c #B07FEB",
"h c #4E95E9",
"j c #579BEE",
"k c #6986F4",
"l c #638AF3",
"z c #6E81FA",
"x c #6E8FFB",
"c c #7482FC",
"v c #7B83FE",
"b c #728BFC",
"n c #7E8CFC",
"m c #7B95F7",
"M c #779DF5",
"N c #7D9CF5",
"B c #7F91FA",
"V c #7E98F8",
"C c #5CA5E9",
"Z c #77B1EE",
"A c #7CB2ED",
"S c #7AA6F2",
"D c #7BAEF1",
"F c #8383FE",
"G c #8B82FB",
"H c #828BFB",
"J c #8B8BFC",
"K c #9486F4",
"L c #988AF3",
"P c #9180FB",
"I c #8295F7",
"U c #849EF4",
"Y c #8192FA",
"T c #AD95E9",
"R c #A69BEE",
"E c #9FA5E9",
"W c #84B2ED",
"Q c #82A6F2",
"! c #82ADF1",
"~ c None",
/* pixels */
"4F44444yvy4444444444444444444444444444yv4444444444vy4444444444444444vy4444444444",
"4444444vyv4444444444444444444444444444444444444444yv4444444444444444yv4444444444",
"444444yvv444444444vy444444444444444444vy444444444v4v44444444444444vyvyv444444444",
"44444FvyF4444444Fvyv44444444444444444444444444444yvy4444444444444444yvF444444444",
"44444vnvHYnnnnHnHBBv44444444444444444444444444444444444444444BBnnHBnnHnnnvv44444",
"4444FJHnGHYnBBBBB~~j444444444444444y44444F44444444444444444FR~~BBYBBBYbcHnx44444",
"4444uu44vty4vyvy4~~~<4444444444444444444yvyv44444444444444yG~~~4v4Fvv31444c34444",
"4444uu44vytyFvyv4~~~>44444444444444HUQ!AAASMc44444444444444s~~~4y44y214444334444",
"4444yGvyF4vtyvyvF~~~>44444y4444444uE~~~~~~~~C3444444444444va~~~444v11F4444c34444",
"4444GJvv44yvttvy4~~~k44444v4444444a~~~~~~~~~~>444444444444yK~~~44v214v444Fn31444",
"4444sPbv4444vtyy4~~~~ZZDSSSVVBBBHvL~~~~~~~~~~lnnnnVVVQQQ!WW~~~~yF214yvF4FJz<4444",
"44F4us4bv444vyty4~~~~~~~~~~~~~~~~~~~~~~~~~~~~~~~~~~~~~~~~~~~~~~v1144vy4FJ4<<4444",
"4444ss44xv44y4ytyy~~~~~~~~~~~~~~~~~~~~~~~~~~~~~~~~~~~~~~~~~~~~4414444FFJ4yz<4444",
"444Fus444bv44v44tyvy2w~~~~~~~~~~~~~~~~~~~~~~~~~~~~~~~~~~~~--441144444FJ44v<z4444",
"4444us4y44bv4444vtyyyv444444yG~~~~~~~~~~~~~~~~~~~~3444444444v214444FFJyv44<<4444",
"4444usv4444xv444yvtyvy4444F4vy~~~~~~~~~~~~~~~~~~~~4v444F44444144444FJ4444v<34444",
"4444us44yvy4bv44444ey444444444y42r2r~~~~~~~~-2-4yvyvv4yyvyv4%44444FJ444yv4<34444",
"44vys~~~~vvF4xv4v444ty4444444Fv4Fvyvyvyv4444v44yvyyvy4vvyv214444vFJ4yvF~~~~z4444",
"4vyvs~~~~~4444bv44444ty4F4444444444yvFyv4FF4yvvv4Fvyyv44v1144444FJ44vv~~~~~<4444",
"44vyu~~~~~c444ybv44444ey4vy4444444vy444v44vyvyy44vyv44444144444FJy44yG~~~~~<4441",
"4444y-qf~~34Fvyvbv44444wyyv44v444444vF4y4444yvF44yyv4yy414444yFJvyvF4G~~@**44444",
"4444vy2T~~3F4yvy4bv444vytrF4yy4444F4yv444444vy444v44vv314yvy4vJ4yvyv4u~~$4444444",
"444444yg~~c444vv44bv44yv4ty4v4444444vy44444Fyv4vyyvFy41y444vFJ44yv444u~~$4444444",
"4444444g~~34vyy4444bvFvy44tyF4444444yv444444vvyyvvyv31y3444FJ4444vy4vu~~$4444444",
"4444444g~~34F44vyyvvbv44vyvty444444F4444yvF4yv44yvF1144444FJ4yv4vyvyvG~~$4444444",
"4444444g~~3vvy4yv4vy4bv4yvvyty44F4444444vy44y44FvF1144444FJ444vy44yvyu~~$4444444",
"4444444g~~3yyvvy44yv44bv4vyv4ty44444vy44yv44vvyvy41444F4FJ4vvyvy4444vG~~$4444444",
"4444vy4g~~3Fvyv44Fvy444bv4y444ey4444yvyvvvyvvyvy1%4444vFJ444Fvyv4444yG~~$44444vy",
"4444444g~~344444yv444yyvbv44444tyv44v44yyvyy44F11yvy44FJ444444yv444FyG~~$444441v",
"44444nIT~~34v444y44F4v444xv44444tr4FF422244v4F11vF4v4FJy444444F44444vu~~hbn44444",
"4444u~~~~~3Fyvy4vvyvyyvF44bv4444Fty22*222rwwy114F444FJ44444F444444444u~~~~~k4444",
"4444a~~~~~44vyvFvyvyvvyv444bv44444r144vv44y4y244444FJ4444F44444444F4vy~~~~~<4444",
"4v44a~~~~44444444v444444vyv4bv4444v4yyvyvF44444F44FJ444yvvvvyvyvvvyvyvy~~~~z4444",
"4y4Fa~~~44F4F444yy4FyvyFyvy44bc444y4vvyvyv4444444FJ44444vyy4vy4Fy4vy4F44~~~,4444",
"44yvP~~~44444444vvyvvvyvvF4444b44444vyvFvyy444v4FJ44444vy444vy44yvFv4v44~~~<4444",
"vyvys~~~44444444vyvyvyvy4444443344444444yvvv4y44uy444F4yvFyvv4vy444y4y4F~~~,4414",
"vyvya~~~444444yFyvF4444v4yv444<4vyvvy4yvyv4y4Fvyyu4444444F44yvyvvvyv4v44~~~<4444",
"yvFvs~~~4F4444v4vy4444yv444F4414yvyyvv4y4v444vyvyu44y44F4444vy4Fy4vyyy4F~~~,4444",
"4444a~~~F444vFvy44yv44F44444v43vvF4444v4vy4444vy4uy4vvyv4444F44444yvvvyv~~~<4444",
"4444s~~~4444yvyv4F4444444444y33y44444vy4yv4444yv4yGFvyvy444444vy4Fvyvyvy~~~,4444",
"4444s~~~4yvvvyyv44444F44vyv443344444yvF444444yvv4yu4Fvyv44444444444vyvyv~~~,4444",
"4444s~~~4F4yyv4v44444444yvF4yccv4444vy444444444y4KF44yvy4444F44444vyvyvv~~~<4444",
"4444s~~~yvvyvF4y4F444444vy44F4k444y44vvv444444444K4444vv44444F4444F4F4yy~~~<4444",
"4444a~~~vyv4yv444444F444444444c4444vyvyy4444444F4GF4vyy4F4444444444444v4~~~,4444",
"v444a~~~444vyvyvFvyv4444444444cc44444444444444yvGG44F44v44yv44444444F444~~~<4444",
"y444s~~~Fv4yvyvv4yvy444444444v2144444444444444vyyy44vy4y4Fvy444444444444~~~,4444",
"4444s~~~vy4vF44y444vFy4444444414444444444444444v4trvyvvy44yv44viF4444444~~~,4441",
"44FyP~~~~vyy444444444kiv44444%4444444444444444vy44tyvyv444v44Fyk444444F~~~~z4444",
"444va~~~~~vyvyvFvvyvyvyvy443144444Fnv44FFvyvnvyv4y4ty4444444444444444F~~~~~<4444",
"44y4u~~~~~34yv44y4vy4FvyvF214v444FJvnnnvFHHHHbv44vF4ey44444F44F444444u~~~~~<4444",
"44v44-qf~~34yvyvyvvy4v4vv214vyvyFJ4444vHnF4444bv44444ty44vyv44444F444G~~@*-44444",
"4444444g~~3Fvvy444Fv4yyv4144444FJ4v444vy444444ybv4444ytyvyvy4444vy444u~~$4444441",
"4444444g~~34yvF444yy4444%44444FJ4vyvyvF44vyv4yvvbvyv444ty4444F44vyvF4G~~$4444444",
"4444444g~~c4vy4444vv441%44444FJ4vyvyvy4444vyvyvy4xvvvy4Ftr444444yvyv4u~~$4444444",
"4444444g~~c4yv4y444Fy1144444FJ44y4F4yv4444yv44yv4yxvvvyvyi44v444yv444u~~$4444444",
"44yv444g~~cyvyvv444v4144444FJ444v444v444444F4Fvy444bvyvy34iyy4444vy4vu~~$4444444",
"444444yg~~3Fyv4y4444144444FJy44F4v4yvvyv444444yvFvyvbvyv444ty444F44v4G~~$4444444",
"4444444g~~3vvyvv441144444FJFv44vvyvyvyvy44444Fv44yvyvbvv4444ey44vy4y4u~~$4444444",
"444444yT~~3yFvyvv4144444FJyv4yvyyvF44vF4F444444444vv44bv44444ty4yvvy4G~~$4444444",
"4444ynIT~~3v4yvy2%444444J4vyvvyvvy44yy4444444444y4y4vyybv44444tyvyv44u~~hmb44444",
"4444G~~~~~3v4v4414y444GJ4v44v4yyFvyvvvyvF44444Fvv4444444bv44444wyyv4vG~~~~~z4444",
"4444a~~~~~yv4y11v44v4FJv4yvyy4vv4yvvvyvy4444444y4F4444444bvF444ytyyv4y~~~~~,4414",
"4444s~~~~44y441F4444FJ44444F44v44y4y44F444F444yvvy44F44444bvyv4y4tyy44y~~~~<4444",
"4444us4444441144444FJ444444444FH~~~~~~~~~~~~~~~~nv444vy444vbvyvv44tyv44444<34444",
"4444usyv4441144444FJyvF444vyvF~~~~~~~~~~~~~~~~~~~~444v444F44bv44444tyy4444<34444",
"4444us4F4F41vy444FJ4vy444444yG~~~~~~~~~~~~~~~~~~~~c4444444444bv44444ty4444<<4444",
"4444us44F1144444FJ4vnY~~~~~~~~~~~~~~~~~~~~~~~~~~~~~~~~~~~~BHvybv44v44tyyv4z34444",
"4444us441144444FJy~~~~~~~~~~~~~~~~~~~~~~~~~~~~~~~~~~~~~~~~~~~~vbv44444ty44,<4444",
"444yus44144444FJv~~~~~~~~~~~~~~~~~~~~~~~~~~~~~~~~~~~~~~~~~~~~~~4bv44444ty4<34444",
"44v4ss1%44444FJ44~~~~X.OO+++==-2-yp~~~~~~~~~~;22--==0998875~~~~44bc444y4ty<<1444",
"44yvuu1v444FFJ444~~~:444vy4444yvyva~~~~~~~~~~>44vy44vyvyvy4i~~~F44x444v44t1<vF44",
"44vyury4444FJ4444~~~>4444v444444vyu6~~~~~~~~ 3444v44Fvyvyv4a~~~4444bv4444v234444",
"4444uu4yvvFJ4444v~~~>44444444444444298oXo.O&244444444244443s~~~44F44bvF44v334444",
"4444yu4vyFJy4444F~~~<444444444442444yv444444444444444444444u~~~44444vbv444344442",
"yv44ye22yt-------~~ 424444444444444444444444444444444444444yd~~*-w=-=-1222%44443",
"vvy4442-22-r2----w*444444444444444444444444444444444444444444-=---w2-22222244444",
"yv444444444444444444444444442444444444444444444444444444444444444444444444444444",
"vy444444444444424444444444444434444444444444441444444444442443444444441444444444",
"F4444444444444444444v44444444444342444444444444442434444444444444444444444444442",
"44444444444444444444144442444444444444444444444444444444444444444444444444344444"
};
